<svg xmlns="http://www.w3.org/2000/svg" width="41" height="41" viewBox="0 0 41 41">
  <g fill="#09548C" fill-rule="evenodd">
    <path d="M20.5,41 C9.253472,41 0,31.888888 0,20.5 C0,9.25347 9.253472,0 20.5,0 C31.17708,0 40.14583,8.25694 41,18.79167 C41,19.21875 40.71528,19.64583 40.14583,19.64583 C39.71875,19.78819 39.29167,19.36111 39.29167,18.93403 C38.4375,9.25347 30.18056,1.70833 20.5,1.70833 C10.25,1.70833 1.708333,10.25 1.708333,20.5 C1.708333,30.89236 10.25,39.291666 20.5,39.291666 C21.06944,39.291666 21.35417,39.718751 21.35417,40.1458347 C21.35417,40.7152787 21.06944,41 20.5,41 Z"/>
    <path d="M36.5 29C34.1 29 32 27.26667 32 25 32 22.86667 34.1 21 36.5 21 39.05 21 41 22.86667 41 25 41 27.26667 39.05 29 36.5 29zM36.5 22.6C35.15 22.6 33.8 23.8 33.8 25 33.8 26.33333 35.15 27.4 36.5 27.4 38 27.4 39.2 26.33333 39.2 25 39.2 23.8 38 22.6 36.5 22.6zM36.5 41C34.1 41 32 39.05 32 36.5 32 34.1 34.1 32 36.5 32 39.05 32 41 34.1 41 36.5 41 39.05 39.05 41 36.5 41zM36.5 33.8C35.15 33.8 33.8 35.15 33.8 36.5 33.8 38 35.15 39.2 36.5 39.2 38 39.2 39.2 38 39.2 36.5 39.2 35.15 38 33.8 36.5 33.8zM23 36C20.86667 36 19 34.05 19 31.5 19 29.1 20.86667 27 23 27 25.26667 27 27 29.1 27 31.5 27 34.05 25.26667 36 23 36zM23 28.8C21.8 28.8 20.6 30.15 20.6 31.5 20.6 33 21.8 34.2 23 34.2 24.33333 34.2 25.4 33 25.4 31.5 25.4 30.15 24.33333 28.8 23 28.8z"/>
    <path d="M26.04478 31C25.74627 31 25.44776 30.7 25.29851 30.4 25 29.95 25.14925 29.5 25.59701 29.2 33.50746 25.3 33.50746 25.3 33.50746 25.3 33.95522 25 34.55224 25.3 34.70149 25.6 35 26.05 34.85075 26.65 34.40299 26.95 26.49254 30.85 26.49254 30.85 26.49254 30.85 26.34328 31 26.19403 31 26.04478 31zM33.03077 36C32.89231 36 32.89231 36 32.75385 36 25.69231 33.5 25.69231 33.5 25.69231 33.5 25.27692 33.375 25 33 25.13846 32.625 25.27692 32.25 25.83077 32 26.24615 32.125 33.30769 34.5 33.30769 34.5 33.30769 34.5 33.72308 34.75 34 35.125 33.86154 35.5 33.72308 35.875 33.30769 36 33.03077 36zM16.16667 31C15.75 31 15.33333 30.71429 15.33333 30.14286 15.33333 26.28571 15.33333 26.28571 15.33333 26.28571 7.416667 19.71429 7.416667 19.71429 7.416667 19.71429 7 19.42857 7 19 7.138889 18.57143 10.88889 12.57143 10.88889 12.57143 10.88889 12.57143 11.16667 12.28571 11.30556 12.14286 11.58333 12.14286 20.33333 12.14286 20.33333 12.14286 20.33333 12.14286 20.33333 8.42857 20.33333 8.42857 20.33333 8.42857 18.25 6.85714 18.25 6.85714 18.25 6.85714 17.97222 6.71429 17.83333 6.42857 17.83333 6.14286 17.97222 5.85714 18.11111 5.57143 18.25 5.42857 25.61111 1.14286 25.61111 1.14286 25.61111 1.14286 26.02778 1 26.44444 1.14286 26.72222 1.42857 27 1.85714 26.86111 2.42857 26.44444 2.71429 20.33333 6.28571 20.33333 6.28571 20.33333 6.28571 21.72222 7.14286 21.72222 7.14286 21.72222 7.14286 21.86111 7.42857 22 7.57143 22 7.85714 22 13 22 13 22 13 22 13.57143 21.72222 13.85714 21.16667 13.85714 12.13889 13.85714 12.13889 13.85714 12.13889 13.85714 8.944445 18.85714 8.944445 18.85714 8.944445 18.85714 16.72222 25.28571 16.72222 25.28571 16.72222 25.28571 17 25.42857 17 25.71429 17 25.85714 17 30.14286 17 30.14286 17 30.14286 17 30.71429 16.72222 31 16.16667 31zM25.86842 17C25.72368 17 25.43421 17 25.28947 16.86111 25 16.44444 25 16.02778 25.28947 15.61111 28.32895 12.69444 28.32895 12.69444 28.32895 12.69444 28.47368 12.55556 28.76316 12.41667 28.90789 12.41667 31.51316 12.41667 31.51316 12.41667 31.51316 12.41667 34.26316 7.55556 34.26316 7.55556 34.26316 7.55556 34.55263 7.13889 34.98684 7 35.42105 7.13889 35.85526 7.41667 36 7.83333 35.85526 8.25 32.81579 13.66667 32.81579 13.66667 32.81579 13.66667 32.67105 13.94444 32.38158 14.08333 31.94737 14.08333 29.34211 14.08333 29.34211 14.08333 29.34211 14.08333 26.59211 16.86111 26.59211 16.86111 26.59211 16.86111 26.44737 17 26.15789 17 25.86842 17z"/>
  </g>
</svg>
