<svg xmlns="http://www.w3.org/2000/svg" width="38" height="38" viewBox="0 0 38 38">
  <g fill="#09548C" fill-rule="evenodd">
    <path d="M9,17 C0.75,17 0.75,17 0.75,17 C0.25,17 0,16.60377 0,16.20755 C0,15.41509 0,15.41509 0,15.41509 C0,14.09434 0.875,12.90566 2,12.64151 C5.25,11.58491 5.25,11.58491 5.25,11.58491 C5.25,10 5.25,10 5.25,10 C6.75,10 6.75,10 6.75,10 C6.75,12.24528 6.75,12.24528 6.75,12.24528 C6.75,12.50943 6.5,12.90566 6.125,12.90566 C2.375,14.09434 2.375,14.09434 2.375,14.09434 C1.875,14.22642 1.5,14.88679 1.5,15.41509 C9,15.41509 9,15.41509 9,15.41509 L9,17 Z"/>
    <path d="M16.25,17 C8,17 8,17 8,17 C8,15.41509 8,15.41509 8,15.41509 C15.5,15.41509 15.5,15.41509 15.5,15.41509 C15.5,14.88679 15,14.22642 14.5,14.09434 C10.75,12.90566 10.75,12.90566 10.75,12.90566 C10.375,12.90566 10.25,12.50943 10.25,12.24528 C10.25,10 10.25,10 10.25,10 C11.75,10 11.75,10 11.75,10 C11.75,11.58491 11.75,11.58491 11.75,11.58491 C15,12.64151 15,12.64151 15,12.64151 C16.125,12.90566 17,14.09434 17,15.41509 C17,16.20755 17,16.20755 17,16.20755 C17,16.60377 16.625,17 16.25,17 Z"/>
    <path d="M8.5,12 C5.357143,12 3,9.33333 3,6 C3,2.66667 5.357143,0 8.5,0 C11.5119,0 14,2.66667 14,6 C14,9.33333 11.5119,12 8.5,12 Z M8.5,1.6 C6.27381,1.6 4.571429,3.6 4.571429,6 C4.571429,8.4 6.27381,10.4 8.5,10.4 C10.59524,10.4 12.42857,8.4 12.42857,6 C12.42857,3.6 10.59524,1.6 8.5,1.6 Z"/>
    <path d="M11.77215 6.68C11.63291 6.68 11.35443 6.68 11.21519 6.68 10.37975 6.52 9.683545 6.04 9.126582 5.4 7.177215 7 4.531646 6.84 3 5.72 3.974684 4.12 3.974684 4.12 3.974684 4.12 4.949367 4.92 7.177215 5.08 8.569621 3.32 8.848101 3.16 9.126582 3 9.405063 3.16 9.544304 3.16 9.822785 3.32 9.962025 3.64 10.37975 4.44 11.07595 4.6 11.35443 4.76 12.05063 4.76 12.60759 4.6 12.74684 4.44 14 5.72 14 5.72 14 5.72 13.44304 6.36 12.60759 6.68 11.77215 6.68zM30 17C21.75 17 21.75 17 21.75 17 21.25 17 21 16.60377 21 16.20755 21 15.41509 21 15.41509 21 15.41509 21 14.09434 21.875 12.90566 23 12.64151 26.25 11.58491 26.25 11.58491 26.25 11.58491 26.25 10 26.25 10 26.25 10 27.75 10 27.75 10 27.75 10 27.75 12.24528 27.75 12.24528 27.75 12.24528 27.75 12.50943 27.5 12.90566 27.125 12.90566 23.375 14.09434 23.375 14.09434 23.375 14.09434 22.875 14.22642 22.5 14.88679 22.5 15.41509 30 15.41509 30 15.41509 30 15.41509L30 17z"/>
    <path d="M37.25,17 C29,17 29,17 29,17 C29,15.41509 29,15.41509 29,15.41509 C36.5,15.41509 36.5,15.41509 36.5,15.41509 C36.5,14.88679 36,14.22642 35.5,14.09434 C31.75,12.90566 31.75,12.90566 31.75,12.90566 C31.375,12.90566 31.25,12.50943 31.25,12.24528 C31.25,10 31.25,10 31.25,10 C32.75,10 32.75,10 32.75,10 C32.75,11.58491 32.75,11.58491 32.75,11.58491 C36,12.64151 36,12.64151 36,12.64151 C37.125,12.90566 38,14.09434 38,15.41509 C38,16.20755 38,16.20755 38,16.20755 C38,16.60377 37.625,17 37.25,17 Z"/>
    <path d="M29.5,12 C26.35714,12 24,9.33333 24,6 C24,2.66667 26.35714,0 29.5,0 C32.5119,0 35,2.66667 35,6 C35,9.33333 32.5119,12 29.5,12 Z M29.5,1.6 C27.27381,1.6 25.57143,3.6 25.57143,6 C25.57143,8.4 27.27381,10.4 29.5,10.4 C31.59524,10.4 33.42857,8.4 33.42857,6 C33.42857,3.6 31.59524,1.6 29.5,1.6 Z"/>
    <path d="M32.88462 6.68C32.60256 6.68 32.46154 6.68 32.32051 6.68 31.47436 6.52 30.76923 6.04 30.20513 5.4 28.23077 7 25.55128 6.84 24 5.72 24.98718 4.12 24.98718 4.12 24.98718 4.12 25.97436 4.92 28.23077 5.08 29.64103 3.32 29.92308 3.16 30.20513 3 30.48718 3.16 30.62821 3.16 30.91026 3.32 31.05128 3.64 31.47436 4.44 32.17949 4.6 32.46154 4.76 33.16667 4.76 33.58974 4.6 33.8718 4.44 35 5.72 35 5.72 35 5.72 34.57692 6.36 33.73077 6.68 32.88462 6.68zM20 38C10.83333 38 10.83333 38 10.83333 38 10.27778 38 10 37.6037735 10 37.2075475 10 36.415094 10 36.415094 10 36.415094 10 35.09434 10.97222 33.90566 12.22222 33.641509 15.83333 32.584906 15.83333 32.584906 15.83333 32.584906 15.83333 31 15.83333 31 15.83333 31 17.5 31 17.5 31 17.5 31 17.5 33.245283 17.5 33.245283 17.5 33.245283 17.5 33.509434 17.22222 33.90566 16.80556 33.90566 12.63889 35.09434 12.63889 35.09434 12.63889 35.09434 12.08333 35.226415 11.66667 35.886793 11.66667 36.415094 20 36.415094 20 36.415094 20 36.415094L20 38z"/>
    <path d="M27.16667,38 C18,38 18,38 18,38 C18,36.415094 18,36.415094 18,36.415094 C26.33333,36.415094 26.33333,36.415094 26.33333,36.415094 C26.33333,35.886793 25.77778,35.226415 25.22222,35.09434 C21.05556,33.90566 21.05556,33.90566 21.05556,33.90566 C20.63889,33.90566 20.5,33.509434 20.5,33.245283 C20.5,31 20.5,31 20.5,31 C22.16667,31 22.16667,31 22.16667,31 C22.16667,32.584906 22.16667,32.584906 22.16667,32.584906 C25.77778,33.641509 25.77778,33.641509 25.77778,33.641509 C27.02778,33.90566 28,35.09434 28,36.415094 C28,37.2075475 28,37.2075475 28,37.2075475 C28,37.6037735 27.58333,38 27.16667,38 Z"/>
    <path d="M19,32 C15.57143,32 13,29.333334 13,26 C13,22.66667 15.57143,20 19,20 C22.28571,20 25,22.66667 25,26 C25,29.333334 22.28571,32 19,32 Z M19,21.6 C16.57143,21.6 14.71429,23.6 14.71429,26 C14.71429,28.4 16.57143,30.4 19,30.4 C21.28571,30.4 23.28571,28.4 23.28571,26 C23.28571,23.6 21.28571,21.6 19,21.6 Z"/>
    <path d="M21.94872 26.76C21.82051 26.76 21.69231 26.76 21.4359 26.64 20.79487 26.52 20.02564 26.28 19.64103 25.8 17.84615 27 15.41026 26.88 14 26.04 14.89744 24.84 14.89744 24.84 14.89744 24.84 15.79487 25.44 17.84615 25.56 19.12821 24.24 19.38462 24.12 19.64103 24 19.89744 24.12 20.02564 24.12 20.28205 24.24 20.41026 24.48 20.79487 25.08 21.30769 25.2 21.69231 25.2 22.20513 25.32 22.71795 25.2 22.97436 24.96 24 26.04 24 26.04 24 26.04 23.61538 26.52 22.84615 26.76 21.94872 26.76zM10.16279 24C9.883721 24 9.744186 23.88372 9.465116 23.76744 5.27907 20.27907 5.27907 20.27907 5.27907 20.27907 5 20.04651 5 19.5814 5.27907 19.23256 5.697674 19 6.255814 19 6.534884 19.23256 10.72093 22.72093 10.72093 22.72093 10.72093 22.72093 11 23.06977 11 23.53488 10.72093 23.76744 10.5814 23.88372 10.30233 24 10.16279 24zM27.97674 24C27.69767 24 27.55814 23.88372 27.27907 23.76744 27 23.53488 27 23.06977 27.27907 22.72093 31.46512 19.23256 31.46512 19.23256 31.46512 19.23256 31.88372 19 32.44186 19 32.72093 19.23256 33 19.5814 33 20.04651 32.72093 20.27907 28.53488 23.76744 28.53488 23.76744 28.53488 23.76744 28.39535 23.88372 28.11628 24 27.97674 24z"/>
  </g>
</svg>
