<svg xmlns="http://www.w3.org/2000/svg" width="50" height="44" viewBox="0 0 50 44">
  <g fill="#111" fill-rule="evenodd">
    <path d="M2.27272727 31.0816667C1.85469697 31.0816667 1.51515152 31.4215909 1.51515152 31.8392424L1.51515152 40.9301515C1.51515152 41.347803 1.85469697 41.6877273 2.27272727 41.6877273L11.3636364 41.6877273C11.7816667 41.6877273 12.1212121 41.347803 12.1212121 40.9301515L12.1212121 31.8392424C12.1212121 31.4215909 11.7816667 31.0816667 11.3636364 31.0816667L2.27272727 31.0816667zM11.3636364 43.2028788L2.27272727 43.2028788C1.0194697 43.2028788 0 42.1834091 0 40.9301515L0 31.8392424C0 30.5859848 1.0194697 29.5665152 2.27272727 29.5665152L11.3636364 29.5665152C12.6168939 29.5665152 13.6363636 30.5859848 13.6363636 31.8392424L13.6363636 40.9301515C13.6363636 42.1834091 12.6168939 43.2028788 11.3636364 43.2028788L11.3636364 43.2028788zM20.4545455 31.0816667C20.0365152 31.0816667 19.6969697 31.4215909 19.6969697 31.8392424L19.6969697 40.9301515C19.6969697 41.347803 20.0365152 41.6877273 20.4545455 41.6877273L29.5454545 41.6877273C29.9634848 41.6877273 30.3030303 41.347803 30.3030303 40.9301515L30.3030303 31.8392424C30.3030303 31.4215909 29.9634848 31.0816667 29.5454545 31.0816667L20.4545455 31.0816667zM29.5454545 43.2028788L20.4545455 43.2028788C19.2012879 43.2028788 18.1818182 42.1834091 18.1818182 40.9301515L18.1818182 31.8392424C18.1818182 30.5859848 19.2012879 29.5665152 20.4545455 29.5665152L29.5454545 29.5665152C30.7987121 29.5665152 31.8181818 30.5859848 31.8181818 31.8392424L31.8181818 40.9301515C31.8181818 42.1834091 30.7987121 43.2028788 29.5454545 43.2028788L29.5454545 43.2028788zM38.6363636 31.0816667C38.2183333 31.0816667 37.8787879 31.4215909 37.8787879 31.8392424L37.8787879 40.9301515C37.8787879 41.347803 38.2183333 41.6877273 38.6363636 41.6877273L47.7272727 41.6877273C48.145303 41.6877273 48.4848485 41.347803 48.4848485 40.9301515L48.4848485 31.8392424C48.4848485 31.4215909 48.145303 31.0816667 47.7272727 31.0816667L38.6363636 31.0816667zM47.7272727 43.2028788L38.6363636 43.2028788C37.3831061 43.2028788 36.3636364 42.1834091 36.3636364 40.9301515L36.3636364 31.8392424C36.3636364 30.5859848 37.3831061 29.5665152 38.6363636 29.5665152L47.7272727 29.5665152C48.9805303 29.5665152 50 30.5859848 50 31.8392424L50 40.9301515C50 42.1834091 48.9805303 43.2028788 47.7272727 43.2028788L47.7272727 43.2028788zM43.1818106 27.2937879C42.7630985 27.2937879 42.4242348 26.9545455 42.4242348 26.5362121L42.4242348 21.9907576C42.4242348 20.7375 41.4047652 19.7180303 40.1515076 19.7180303L28.0302955 19.7180303C27.6115833 19.7180303 27.2727197 19.3787879 27.2727197 18.9604545L27.2727197 9.1119697C27.2727197 8.69363636 27.6115833 8.35439394 28.0302955 8.35439394L30.2246136 8.35439394 25.0177197 1.95568182 19.7805985 8.35439394 21.9696894 8.35439394C22.3884015 8.35439394 22.7272652 8.69363636 22.7272652 9.1119697L22.7272652 18.9604545C22.7272652 19.3787879 22.3884015 19.7180303 21.9696894 19.7180303L9.84847727 19.7180303C8.5952197 19.7180303 7.57575 20.7375 7.57575 21.9907576L7.57575 26.5362121C7.57575 26.9545455 7.23688636 27.2937879 6.81817424 27.2937879 6.39946212 27.2937879 6.06059848 26.9545455 6.06059848 26.5362121L6.06059848 21.9907576C6.06059848 19.9022727 7.75999242 18.2028788 9.84847727 18.2028788L21.2121136 18.2028788 21.2121136 9.86954545 18.1818106 9.86954545C17.8888561 9.86954545 17.6224924 9.70083333 17.4974924 9.43636364 17.3717348 9.17189394 17.4101439 8.85856061 17.5959015 8.63219697L24.4333258.27780303C24.5768106.102045455 24.7921136 0 25.0192348 0L25.0199924 0C25.2478712.000378787879 25.4630985.10280303 25.6066591.279242424L32.4055985 8.63371212C32.5905227 8.86045455 32.6275682 9.17340909 32.5024924 9.43712121 32.3767348 9.70121212 32.1103712 9.86954545 31.8181742 9.86954545L28.7878712 9.86954545 28.7878712 18.2028788 40.1515076 18.2028788C42.2399924 18.2028788 43.9393864 19.9022727 43.9393864 21.9907576L43.9393864 26.5362121C43.9393864 26.9545455 43.6005227 27.2937879 43.1818106 27.2937879"/>
    <path d="M25,27.2937879 C24.5812879,27.2937879 24.2424242,26.9545455 24.2424242,26.5362121 L24.2424242,21.9907576 C24.2424242,21.5724242 24.5812879,21.2331818 25,21.2331818 C25.4187121,21.2331818 25.7575758,21.5724242 25.7575758,21.9907576 L25.7575758,26.5362121 C25.7575758,26.9545455 25.4187121,27.2937879 25,27.2937879"/>
  </g>
</svg>
