<svg xmlns="http://www.w3.org/2000/svg" width="42" height="39" viewBox="0 0 42 39">
  <g fill="none" fill-rule="evenodd" stroke="#111" stroke-width="2" transform="translate(1 1)">
    <path d="M6.95652174 29.7608696L6.95652174 37 7.82608696 37 15.6521739 30.5652174 37.3913043 30.5652174C38.8321739 30.5652174 40 29.4849783 40 28.1521739L40 3.2173913M27.826087 4.02173913L2.60869565 4.02173913C1.16782609 4.02173913 0 5.10197826 0 6.43478261L0 28.1521739C0 29.4849783 1.16782609 30.5652174 2.60869565 30.5652174L4.34782609 30.5652174"/>
    <polygon points="30.435 7.239 30.435 20.13 32.174 24.935 34.783 24.935 36.522 20.151 36.522 7.253"/>
    <line x1="33.478" x2="33.478" y1="28.152" y2="24.935"/>
    <line x1="36.522" x2="30.435" y1="19.326" y2="19.305"/>
    <path d="M30.4347826,7.23913043 L28.6956522,7.23913043 C27.7356522,7.23913043 26.9565217,7.95982609 26.9565217,8.84782609 L26.9565217,14.4782609"/>
    <line x1="3.478" x2="18.261" y1="11.261" y2="11.261"/>
    <line x1="3.478" x2="13.043" y1="15.283" y2="15.283"/>
    <line x1="3.478" x2="16.522" y1="19.304" y2="19.304"/>
    <line x1="3.478" x2="8.696" y1="23.326" y2="23.326"/>
    <line x1="14.783" x2="24.348" y1="15.283" y2="15.283"/>
    <line x1="18.261" x2="21.739" y1="19.304" y2="19.304"/>
    <line x1="10.435" x2="18.261" y1="23.326" y2="23.326"/>
    <path d="M36.5217391,2.81521739 C36.5217391,1.26041304 35.1591304,0 33.4782609,0 C31.7973913,0 30.4347826,1.26041304 30.4347826,2.81521739 L30.4347826,7.23913043 L36.5217391,7.23913043 L36.5217391,2.81521739 Z"/>
  </g>
</svg>
