<svg xmlns="http://www.w3.org/2000/svg" width="35" height="44" viewBox="0 0 35 44">
  <g fill="#09548C" fill-rule="evenodd">
    <path d="M1.63792168,42.5113658 L33.3620745,42.5113658 L33.5127171,28.5558557 L26.4009982,24.4525244 L24.7556821,23.7126322 C22.1148962,28.8988504 18.4027852,36.2232204 18.1928471,36.7338238 C18.0892136,37.0078977 17.8344033,37.1956195 17.5424665,37.2125145 C17.2475916,37.2296776 16.9716807,37.0695777 16.8383994,36.8054263 L10.2672844,23.7651943 L1.4875462,28.5671191 L1.63792168,42.5113658 Z M34.0952552,44 L0.904741024,44 C0.498219727,44 0.167821011,43.6714868 0.163280366,43.263594 L4.15057233e-05,28.1358952 C-0.00285383026,27.8604804 0.145919076,27.6059832 0.38684037,27.4740416 L10.2290896,22.0907154 C10.4051064,21.994441 10.6123735,21.9737916 10.8038818,22.0338625 C10.9953902,22.0936654 11.1545799,22.2288251 11.2451257,22.4085017 L17.4874445,34.7957298 C19.0611788,31.6259124 22.8542201,24.176037 23.7562059,22.4055518 C23.9359621,22.0526347 24.3593105,21.9032618 24.7193569,22.0652389 L27.0412292,23.1095087 C27.0636654,23.1196993 27.0858344,23.1309626 27.1074692,23.1432986 L34.6281132,27.482355 C34.8607545,27.616442 35.00285,27.8663802 34.9999566,28.1358952 L34.8367158,43.263594 C34.8321752,43.6714868 34.5017765,44 34.0952552,44 L34.0952552,44 Z"/>
    <path d="M26.7741844 30.8862636L26.7741844 23 25.2260748 23 25.2260748 30.8862636C22.835238 31.2748292 21 33.4332574 21 36.0299013L21 39 22.5481096 39 22.5481096 36.0299013C22.5481096 34.0479467 24.0967374 32.4356691 25.9998704 32.4356691 27.9035217 32.4356691 29.4518904 34.0479467 29.4518904 36.0299013L29.4518904 39 31 39 31 36.0299013C31 33.4332574 29.164762 31.2748292 26.7741844 30.8862636M9.39134728 34.9443225C9.39134728 35.7257268 8.76716632 36.361492 8 36.361492 7.23283368 36.361492 6.60865272 35.7257268 6.60865272 34.9443225 6.60865272 34.1629183 7.23283368 33.527153 8 33.527153 8.76716632 33.527153 9.39134728 34.1629183 9.39134728 34.9443225zM8.80432636 32.0010971L8.80432636 24 7.19567364 24 7.19567364 32.0013714C5.93088592 32.360395 5 33.5433352 5 34.9443225 5 36.6291827 6.34583969 38 8 38 9.65416031 38 11 36.6291827 11 34.9443225 11 33.5433352 10.0691141 32.360395 8.80432636 32.0010971L8.80432636 32.0010971zM17.5 1.48780488C12.5304914 1.48780488 8.48755584 5.53068882 8.48755584 10.500134 8.48755584 15.4695792 12.5304914 19.5121951 17.5 19.5121951 22.4695086 19.5121951 26.5121761 15.4695792 26.5121761 10.500134 26.5121761 5.53068882 22.4695086 1.48780488 17.5 1.48780488zM17.5 21C11.7103255 21 7 16.2897347 7 10.500134 7 4.71053337 11.7103255 0 17.5 0 23.2896745 0 28 4.71053337 28 10.500134 28 16.2897347 23.2896745 21 17.5 21L17.5 21z"/>
  </g>
</svg>
