<svg xmlns="http://www.w3.org/2000/svg" xmlns:xlink="http://www.w3.org/1999/xlink" width="65" height="37" viewBox="0 0 65 37">
  <defs>
    <polygon id="value-1-a" points="0 .218 64.79 .218 64.79 23.737 0 23.737"/>
  </defs>
  <g fill="none" fill-rule="evenodd">
    <polygon fill="#09548C" points="59.091 16.377 59.091 26 60.076 26 60.076 16"/>
    <path fill="#09548C" d="M49.7714836,19.7631379 L32.3955296,26.07209 L15.0187204,19.7631379 L15.0187204,32.7809481 C15.0187204,32.7809481 21.9882599,36.5131144 32.2839178,36.5131144 C37.4330296,36.5131144 43.412602,35.5802902 49.7714836,32.7809481 L49.7714836,19.7631379 Z M17.0636546,22.7128795 L31.707898,28.0298907 L32.3955296,28.2793973 L33.0840164,28.0298907 L47.7265493,22.7133141 L47.7265493,31.3938828 C42.7356612,33.4116694 37.5467796,34.4344725 32.2839178,34.4344725 C24.9359243,34.4344725 19.3266809,32.4132084 17.0636546,31.4456097 L17.0636546,22.7128795 Z"/>
    <mask id="value-1-b" fill="#fff">
      <use xlink:href="#value-1-a"/>
    </mask>
    <path fill="#0B5790" d="M32.3956151,0.217774906 L-4.27631579e-05,11.9771852 L32.3956151,23.7374648 L64.7895625,11.9771852 L32.3956151,0.217774906 Z M32.3956151,2.42508224 L58.7090691,11.9771852 L32.3956151,21.5301574 L6.08045066,11.9771852 L32.3956151,2.42508224 Z" mask="url(#value-1-b)"/>
    <path fill="#09548C" d="M59.5347829,25.508179 C58.4417566,25.508179 57.5535658,26.4123144 57.5535658,27.5220536 C57.5535658,27.9267411 57.672875,28.3027397 57.8751447,28.6183177 L56.9129737,33.4502256 L62.1266579,33.4502256 L61.1948487,28.6196217 C61.3979737,28.3040437 61.5177105,27.9271758 61.5177105,27.5220536 C61.5177105,26.4123144 60.6278092,25.508179 59.5347829,25.508179 M59.5347829,26.8939403 C59.8760329,26.8939403 60.1539934,27.1760479 60.1539934,27.5220536 C60.1539934,27.6437641 60.1202105,27.7585197 60.0535,27.8619737 L59.7507368,28.333602 L59.8572171,28.8860808 L60.4700132,32.0640296 L58.5798816,32.0640296 L59.2114934,28.8939051 L59.3213947,28.3379488 L59.0173487,27.8624084 C58.9506382,27.7585197 58.9172829,27.6437641 58.9172829,27.5220536 C58.9172829,27.1760479 59.1939605,26.8939403 59.5347829,26.8939403"/>
  </g>
</svg>
