<svg xmlns="http://www.w3.org/2000/svg" xmlns:xlink="http://www.w3.org/1999/xlink" width="50" height="43" viewBox="0 0 50 43">
  <defs>
    <polygon id="value-3-a" points="0 0 49.992 0 49.992 42.491 0 42.491"/>
  </defs>
  <g fill="none" fill-rule="evenodd">
    <mask id="value-3-b" fill="#fff">
      <use xlink:href="#value-3-a"/>
    </mask>
    <path fill="#09548C" d="M48.6953421,35.2691053 C48.6829737,35.3927895 48.6600789,35.5141053 48.6411316,35.6362105 C48.6269211,35.7262105 48.6174474,35.8177895 48.5998158,35.9067368 C48.5706053,36.0509474 48.5319211,36.1922632 48.4935,36.3338421 C48.4761316,36.3980526 48.4627105,36.4638421 48.4437632,36.527 C48.4006053,36.6693684 48.3479737,36.8080526 48.2950789,36.9464737 C48.2724474,37.007 48.2529737,37.0696316 48.2285,37.1293684 C48.1745526,37.2591053 48.1124474,37.3846316 48.0508684,37.5106842 C48.0185,37.5767368 47.9892895,37.6443684 47.9550789,37.7093684 C47.8953421,37.8217368 47.8277105,37.9293684 47.7616579,38.0380526 C47.7163947,38.1127895 47.6740263,38.1888421 47.6261316,38.2612105 C47.5629737,38.3562105 47.4932368,38.4467368 47.4253421,38.5385789 C47.3656053,38.6188421 47.3087632,38.7006842 47.2458684,38.7780526 C47.1792895,38.8601579 47.1061316,38.9375263 47.0350789,39.0167368 C46.9750789,39.0841053 46.9192895,39.1551579 46.8561316,39.2201579 L46.8561316,39.2141053 L46.8561316,38.7864737 C46.8561316,38.5967368 46.8411316,38.4209474 46.8198158,38.2517368 C46.8150789,38.2148947 46.8108684,38.1780526 46.8053421,38.142 C46.7803421,37.9817368 46.7477105,37.8288421 46.7048158,37.6864737 C46.6979737,37.6641053 46.6895526,37.6433158 46.6824474,37.6212105 C46.6408684,37.4938421 46.5924474,37.3741053 46.5379737,37.2606842 C46.5269211,37.2375263 46.5166579,37.2133158 46.5050789,37.1909474 C46.4424474,37.0698947 46.3729737,36.9577895 46.2971842,36.8525263 C46.2806053,36.8298947 46.2635,36.8083158 46.2463947,36.7864737 C46.1719211,36.6896316 46.0932368,36.5983158 46.0087632,36.5146316 C46.0011316,36.507 45.9940263,36.4983158 45.9861316,36.4906842 C45.8945526,36.4022632 45.7969211,36.3225263 45.6961316,36.2477895 C45.6737632,36.2309474 45.6511316,36.2146316 45.6279737,36.1985789 C45.5261316,36.1275263 45.4219211,36.0606842 45.3129737,36.0014737 C45.3021842,35.9956842 45.2908684,35.9906842 45.2800789,35.9848947 C45.1769211,35.9301579 45.0713947,35.8809474 44.9637632,35.8356842 C44.9411316,35.8262105 44.9187632,35.8162105 44.8958684,35.8072632 C44.7819211,35.7614737 44.6663947,35.7206842 44.5503421,35.6846316 C44.5287632,35.6780526 44.5077105,35.6722632 44.4861316,35.6659474 C44.3769211,35.6335789 44.2674474,35.6046316 44.1582368,35.5796316 C44.1442895,35.5764737 44.1306053,35.5727895 44.1171842,35.5698947 C44.1082368,35.5677895 44.0995526,35.5654211 44.0908684,35.5635789 C44.1048158,35.5506842 44.1166579,35.5367368 44.1300789,35.5238421 C44.1695526,35.4859474 44.2074474,35.447 44.2448158,35.407 C44.2735,35.3764737 44.3021842,35.3456842 44.3295526,35.3138421 C44.3650789,35.2725263 44.3985,35.2298947 44.4316579,35.1867368 C44.4574474,35.1533158 44.4832368,35.1198947 44.5077105,35.0854211 C44.5387632,35.0406842 44.5677105,34.9946316 44.5966579,34.9480526 C44.6190263,34.9122632 44.6419211,34.8764737 44.6627105,34.8393684 C44.6895526,34.7914737 44.7137632,34.7417368 44.7382368,34.6922632 C44.7566579,34.6543684 44.7758684,34.617 44.7929737,34.5785789 C44.8156053,34.5267368 44.8348158,34.4733158 44.8545526,34.4196316 C44.8690263,34.3809474 44.8848158,34.3430526 44.8971842,34.3035789 C44.9153421,34.247 44.9292895,34.1891053 44.9442895,34.1312105 C44.9540263,34.0927895 44.9656053,34.0554211 44.9737632,34.0162105 C44.9874474,33.9514737 44.9963947,33.8851579 45.0056053,33.8188421 C45.0103421,33.7851579 45.0174474,33.7525263 45.0211316,33.7185789 C45.0316579,33.6177895 45.0374474,33.5154211 45.0374474,33.4117368 C45.0374474,31.7998947 43.7258684,30.4885789 42.1137632,30.4885789 C40.5016579,30.4885789 39.1900789,31.7998947 39.1900789,33.4117368 C39.1900789,33.5154211 39.1958684,33.6177895 39.2063947,33.7185789 C39.2100789,33.7525263 39.2171842,33.7851579 39.2219211,33.8188421 C39.2311316,33.8851579 39.2400789,33.9514737 39.2537632,34.0162105 C39.2619211,34.0554211 39.2735,34.0927895 39.2832368,34.1312105 C39.2982368,34.1891053 39.3124474,34.247 39.3303421,34.3035789 C39.3432368,34.3430526 39.3587632,34.3814737 39.3732368,34.4201579 C39.3927105,34.4735789 39.4121842,34.5267368 39.4345526,34.5783158 C39.4516579,34.617 39.4708684,34.6546316 39.4898158,34.6927895 C39.5137632,34.742 39.5379737,34.7917368 39.5650789,34.8393684 C39.5858684,34.8764737 39.6087632,34.9122632 39.6311316,34.9480526 C39.6598158,34.9946316 39.6887632,35.0406842 39.7200789,35.0854211 C39.7442895,35.1198947 39.7700789,35.1533158 39.7958684,35.1867368 C39.8292895,35.2298947 39.8627105,35.2725263 39.8979737,35.3138421 C39.9256053,35.3456842 39.9540263,35.3764737 39.9829737,35.407 C40.0200789,35.447 40.0582368,35.4859474 40.0974474,35.5238421 C40.1111316,35.5367368 40.1229737,35.5506842 40.1369211,35.5635789 C40.1279737,35.5654211 40.1192895,35.5677895 40.1106053,35.5698947 C40.0969211,35.5727895 40.0832368,35.5764737 40.0695526,35.5796316 C39.9603421,35.6046316 39.8508684,35.6335789 39.7413947,35.6659474 C39.7200789,35.6722632 39.6985,35.6780526 39.6771842,35.6846316 C39.5611316,35.7206842 39.4458684,35.7614737 39.3316579,35.8072632 C39.3087632,35.8162105 39.2863947,35.8262105 39.2637632,35.8356842 C39.1563947,35.8809474 39.0508684,35.9301579 38.9474474,35.9848947 C38.9366579,35.9906842 38.9253421,35.9956842 38.9145526,36.0014737 C38.8058684,36.0606842 38.7013947,36.1275263 38.5995526,36.1985789 C38.5766579,36.2146316 38.5540263,36.2309474 38.5316579,36.2477895 C38.4306053,36.3225263 38.3329737,36.4022632 38.2413947,36.4906842 C38.2335,36.4983158 38.2266579,36.507 38.2187632,36.5146316 C38.1342895,36.5983158 38.0556053,36.6896316 37.9811316,36.7864737 C37.9642895,36.8085789 37.9469211,36.8298947 37.9306053,36.8525263 C37.8548158,36.9575263 37.7850789,37.0698947 37.7227105,37.1909474 C37.7108684,37.2133158 37.7008684,37.2375263 37.6898158,37.2606842 C37.6353421,37.3741053 37.5866579,37.4938421 37.5453421,37.6212105 C37.5382368,37.6433158 37.5295526,37.6641053 37.5229737,37.6864737 C37.4800789,37.8288421 37.4474474,37.9817368 37.4221842,38.142 C37.4169211,38.1780526 37.4124474,38.2148947 37.4077105,38.2517368 C37.3863947,38.4209474 37.3716579,38.5967368 37.3716579,38.7864737 L37.3716579,39.2141053 L37.3716579,39.2201579 C37.3082368,39.1551579 37.2527105,39.0841053 37.1924474,39.0167368 C37.1216579,38.9375263 37.0482368,38.8601579 36.9813947,38.7780526 C36.9187632,38.7006842 36.8616579,38.6188421 36.8024474,38.5385789 C36.7345526,38.4467368 36.6645526,38.3562105 36.6016579,38.2612105 C36.5535,38.1888421 36.5111316,38.1127895 36.4658684,38.0380526 C36.3998158,37.9293684 36.3324474,37.8217368 36.2727105,37.7093684 C36.2382368,37.6443684 36.2092895,37.5767368 36.1769211,37.5106842 C36.1150789,37.3846316 36.0527105,37.2591053 35.9992895,37.1293684 C35.9745526,37.0696316 35.9553421,37.007 35.9321842,36.9464737 C35.8798158,36.8080526 35.8271842,36.6693684 35.7840263,36.527 C35.7648158,36.4638421 35.7513947,36.3980526 35.7340263,36.3338421 C35.6958684,36.1922632 35.6569211,36.0509474 35.6279737,35.9067368 C35.6100789,35.8177895 35.6006053,35.7262105 35.5866579,35.6362105 C35.5671842,35.5141053 35.5445526,35.3927895 35.5321842,35.2691053 C35.5108684,35.0533158 35.4990263,34.8343684 35.4990263,34.6127895 C35.4990263,34.4022632 35.5111316,34.1948947 35.5308684,33.9896316 C35.5366579,33.9243684 35.5469211,33.8598947 35.5550789,33.7948947 C35.5724474,33.6554211 35.5927105,33.5167368 35.6187632,33.3798947 C35.6329737,33.3041053 35.6495526,33.2288421 35.6666579,33.1535789 C35.6945526,33.0301579 35.7261316,32.9085789 35.7608684,32.7880526 C35.7837632,32.7091053 35.8061316,32.6306842 35.8319211,32.5527895 C35.8435,32.5172632 35.8516579,32.4812105 35.8640263,32.4459474 C35.8669211,32.4454211 35.8713947,32.4456842 35.8721842,32.4427895 C35.9608684,32.1554211 36.2019211,31.6675263 36.2471842,31.5685789 C36.2482368,31.567 36.2458684,31.5646316 36.2450789,31.5627895 C36.2561316,31.5414737 36.2690263,31.5214737 36.2803421,31.5001579 C36.2998158,31.4635789 36.3211316,31.4283158 36.3411316,31.3925263 C36.4227105,31.247 36.5087632,31.1043684 36.6006053,30.9656842 C36.6174474,30.9404211 36.6340263,30.9146316 36.6508684,30.8893684 C36.8816579,30.5504211 37.1421842,30.2372632 37.4271842,29.9504211 C37.4356053,29.942 37.4440263,29.9338421 37.4521842,29.9254211 C37.7453421,29.6338421 38.0635,29.3709474 38.4040263,29.1398947 C38.4171842,29.1309474 38.4311316,29.1225263 38.4448158,29.1133158 C38.5998158,29.0096316 38.7595526,28.9127895 38.9232368,28.8222632 C38.9440263,28.8106842 38.9640263,28.7985789 38.9853421,28.7872632 C39.1585,28.6941053 39.3363947,28.6080526 39.5182368,28.5301579 C39.5469211,28.5180526 39.5766579,28.5072632 39.6053421,28.4954211 C39.7558684,28.4333158 39.9095526,28.3777895 40.0653421,28.3267368 C40.1137632,28.3112105 40.1613947,28.2951579 40.2100789,28.2804211 C40.3919211,28.2254211 40.5766579,28.1767368 40.7648158,28.1372632 C40.7924474,28.1317368 40.8206053,28.1280526 40.8482368,28.1227895 C41.0142895,28.0906842 41.1827105,28.0651579 41.3532368,28.0456842 C41.4071842,28.0393684 41.4611316,28.0335789 41.5153421,28.0285789 C41.7127105,28.0109474 41.9119211,27.9983158 42.1137632,27.9983158 C45.7613947,27.9983158 48.7285,30.9654211 48.7285,34.6127895 C48.7285,34.8343684 48.7166579,35.0533158 48.6953421,35.2691053 M42.1137632,35.072 C41.1985,35.072 40.4537632,34.3272632 40.4537632,33.4117368 C40.4537632,32.4967368 41.1985,31.752 42.1137632,31.752 C43.0292895,31.752 43.7740263,32.4967368 43.7740263,33.4117368 C43.7740263,34.3272632 43.0292895,35.072 42.1137632,35.072 M45.2337632,40.4425263 C45.0677105,40.5317368 44.8974474,40.6138421 44.7232368,40.6888421 C44.6829737,40.7062105 44.6416579,40.7214737 44.6008684,40.7380526 C44.4574474,40.7964737 44.3119211,40.8498947 44.1635,40.8985789 C44.1166579,40.9138421 44.0695526,40.9298947 44.0219211,40.9441053 C43.8374474,40.9998947 43.6503421,41.0496316 43.4595526,41.0891053 C43.4371842,41.0938421 43.4140263,41.0967368 43.3911316,41.1009474 C43.2200789,41.1346316 43.0463947,41.1606842 42.8708684,41.1806842 C42.8187632,41.1864737 42.7669211,41.1922632 42.7145526,41.1967368 C42.5166579,41.2148947 42.3166579,41.2275263 42.1137632,41.2275263 C41.9111316,41.2275263 41.7111316,41.2148947 41.5129737,41.1967368 C41.4608684,41.1922632 41.4087632,41.1864737 41.3566579,41.1806842 C41.1811316,41.1606842 41.0074474,41.1346316 40.8366579,41.1009474 C40.8137632,41.0967368 40.7906053,41.0938421 40.7679737,41.0891053 C40.5771842,41.0496316 40.3900789,40.9998947 40.2056053,40.9441053 C40.1582368,40.9298947 40.1111316,40.9138421 40.0637632,40.8985789 C39.9158684,40.8498947 39.7700789,40.7964737 39.6266579,40.7380526 C39.5861316,40.7214737 39.5448158,40.7062105 39.5042895,40.6888421 C39.3300789,40.6138421 39.1600789,40.5317368 38.9940263,40.4425263 C38.9561316,40.4222632 38.9198158,40.3996316 38.8824474,40.3785789 C38.7995526,40.332 38.7161316,40.287 38.6350789,40.2367368 L38.6350789,40.2283158 L38.6350789,38.7864737 C38.6350789,37.5080526 39.2266579,36.6564737 42.1137632,36.6564737 C45.0011316,36.6564737 45.5927105,37.5080526 45.5927105,38.7864737 L45.5927105,40.2283158 L45.5927105,40.2367368 C45.5113947,40.287 45.4279737,40.332 45.3453421,40.3785789 C45.3079737,40.3996316 45.2713947,40.4222632 45.2337632,40.4425263 M26.4756053,26.8864737 C26.3948158,27.0583158 26.3085,27.2272632 26.2203421,27.3954211 C26.1995526,27.4346316 26.1803421,27.4751579 26.1592895,27.5138421 C26.0582368,27.7022632 25.9513947,27.8875263 25.8411316,28.0709474 C25.7777105,28.1759474 25.7103421,28.2783158 25.6442895,28.3812105 C25.5850789,28.4738421 25.5271842,28.567 25.4656053,28.6580526 C25.3808684,28.7827895 25.2921842,28.9043684 25.2035,29.0259474 C25.1635,29.0812105 25.1245526,29.137 25.0835,29.1914737 C24.9863947,29.3206842 24.8858684,29.447 24.7842895,29.5722632 C24.7490263,29.6159474 24.7142895,29.6598947 24.6782368,29.7030526 C24.5706053,29.8325263 24.4598158,29.9596316 24.3474474,30.0848947 C24.3156053,30.1201579 24.2840263,30.1551579 24.2519211,30.1901579 C24.1335,30.3191053 24.0127105,30.4464737 23.8890263,30.5706842 C23.8624474,30.5975263 23.8356053,30.6235789 23.8087632,30.6501579 C23.6777105,30.7798947 23.5445526,30.9080526 23.4082368,31.032 C23.3948158,31.0443684 23.3811316,31.0559474 23.3674474,31.0680526 C23.2466579,31.1772632 23.1269211,31.2875263 23.0016579,31.3925263 L23.0016579,31.3851579 L23.0016579,29.2346316 C23.0016579,28.997 22.9885,28.772 22.9698158,28.5527895 C22.9656053,28.5062105 22.9619211,28.4593684 22.9571842,28.4135789 C22.9348158,28.2043684 22.9053421,28.0025263 22.8666579,27.8096316 C22.8598158,27.7764737 22.8513947,27.7454211 22.8445526,27.7127895 C22.8061316,27.5383158 22.7613947,27.3701579 22.7100789,27.2091053 C22.7008684,27.1804211 22.6929737,27.1501579 22.6835,27.122 C22.6250789,26.9491053 22.5585,26.7848947 22.4856053,26.627 C22.4692895,26.5914737 22.4521842,26.5572632 22.4350789,26.5225263 C22.3579737,26.3654211 22.2763947,26.2130526 22.1856053,26.0706842 C22.1832368,26.067 22.1806053,26.0638421 22.1782368,26.0601579 C22.0885,25.9201579 21.9903421,25.7891053 21.8882368,25.6625263 C21.8653421,25.6346316 21.8429737,25.6062105 21.8198158,25.5788421 C21.7163947,25.4564737 21.6077105,25.3401579 21.4932368,25.2304211 C21.4719211,25.2098947 21.4498158,25.1909474 21.4282368,25.1712105 C21.3216579,25.0727895 21.2111316,24.9793684 21.0966579,24.8909474 C21.0758684,24.8748947 21.0561316,24.8577895 21.0350789,24.8425263 C20.9077105,24.7475263 20.7753421,24.6588421 20.6395526,24.5748947 C20.6085,24.5556842 20.5769211,24.5372632 20.5456053,24.5183158 C20.4058684,24.4359474 20.2635,24.3567368 20.1161316,24.2848947 C20.1098158,24.2817368 20.1032368,24.2791053 20.0969211,24.2762105 C19.9524474,24.2062105 19.8037632,24.1422632 19.6529737,24.0817368 C19.6198158,24.0683158 19.5866579,24.0548947 19.5532368,24.042 C19.4003421,23.9833158 19.2450789,23.9285789 19.0871842,23.8788421 C19.0585,23.8696316 19.0292895,23.8612105 19.0003421,23.8525263 C18.8527105,23.8075263 18.7035,23.7659474 18.5524474,23.7280526 C18.5290263,23.722 18.5061316,23.7156842 18.4827105,23.7096316 C18.3171842,23.6693684 18.1498158,23.6333158 17.9813947,23.6004211 C17.9458684,23.5935789 17.9103421,23.587 17.8745526,23.5804211 C17.7032368,23.5485789 17.5313947,23.5193684 17.3582368,23.4941053 C17.3550789,23.4938421 17.3516579,23.4933158 17.3485,23.4927895 C17.1750789,23.4680526 17.0013947,23.4472632 16.8271842,23.4285789 C16.8092895,23.4264737 16.7911316,23.4235789 16.7729737,23.4217368 C16.7987632,23.4088421 16.8232368,23.3935789 16.8485,23.3798947 C16.8824474,23.362 16.9156053,23.3433158 16.9490263,23.3243684 C17.0521842,23.2664737 17.1532368,23.2051579 17.2519211,23.1401579 C17.2763947,23.1241053 17.3019211,23.1088421 17.3261316,23.0925263 C17.4440263,23.0117368 17.5579737,22.9264737 17.6682368,22.8362105 C17.6935,22.8156842 17.7179737,22.7935789 17.7427105,22.7725263 C17.8306053,22.6977895 17.9158684,22.6206842 17.9982368,22.5404211 C18.0253421,22.5138421 18.0529737,22.4877895 18.0795526,22.4606842 C18.1792895,22.3588421 18.2758684,22.2543684 18.3669211,22.1443684 C18.3771842,22.132 18.3863947,22.1185789 18.3966579,22.1059474 C18.4774474,22.007 18.5540263,21.9038421 18.6271842,21.7983158 C18.6498158,21.7654211 18.6721842,21.7325263 18.6942895,21.6991053 C18.7627105,21.5946316 18.8279737,21.4880526 18.8887632,21.3788421 C18.8987632,21.3606842 18.9100789,21.3433158 18.9200789,21.3251579 C18.9879737,21.1991053 19.0498158,21.0693684 19.1069211,20.9372632 C19.1221842,20.9025263 19.1356053,20.8672632 19.1500789,20.8325263 C19.1937632,20.7248947 19.2337632,20.6156842 19.2700789,20.5048947 C19.2811316,20.4712105 19.2929737,20.4380526 19.3035,20.4041053 C19.3458684,20.2648947 19.3827105,20.1233158 19.4129737,19.9791053 C19.4187632,19.9512105 19.4227105,19.9225263 19.4282368,19.8943684 C19.4513947,19.7735789 19.4698158,19.6514737 19.4842895,19.5277895 C19.4890263,19.4867368 19.4937632,19.4459474 19.4974474,19.4046316 C19.5113947,19.2535789 19.5208684,19.1014737 19.5208684,18.947 C19.5208684,16.1793684 17.2695526,13.9283158 14.5021842,13.9283158 C11.7348158,13.9283158 9.4835,16.1793684 9.4835,18.947 C9.4835,19.1014737 9.49297368,19.2535789 9.50665789,19.4046316 C9.51034211,19.4459474 9.51507895,19.4867368 9.51981579,19.5277895 C9.53428947,19.6514737 9.55297368,19.7735789 9.57613158,19.8943684 C9.58139474,19.9225263 9.58534211,19.9512105 9.59139474,19.9791053 C9.62165789,20.1233158 9.6585,20.2648947 9.70086842,20.4041053 C9.71113158,20.4380526 9.72297368,20.4712105 9.73402632,20.5048947 C9.77034211,20.6156842 9.81034211,20.7248947 9.85428947,20.8325263 C9.8685,20.8672632 9.88218421,20.9025263 9.89718421,20.9372632 C9.95455263,21.0693684 10.0163947,21.1991053 10.0842895,21.3251579 C10.0940263,21.3433158 10.1053421,21.3606842 10.1153421,21.3788421 C10.1761316,21.4880526 10.2413947,21.5946316 10.3100789,21.6991053 C10.3321842,21.7325263 10.3542895,21.7654211 10.3771842,21.7983158 C10.4503421,21.9038421 10.5266579,22.007 10.6077105,22.1059474 C10.6177105,22.1185789 10.6269211,22.132 10.6371842,22.1443684 C10.7282368,22.2543684 10.8248158,22.3588421 10.9248158,22.4606842 C10.9513947,22.4877895 10.9787632,22.5138421 11.0058684,22.5404211 C11.0885,22.6206842 11.1735,22.6977895 11.2613947,22.7725263 C11.2863947,22.7935789 11.3106053,22.8156842 11.3358684,22.8362105 C11.4463947,22.9264737 11.5603421,23.0117368 11.6779737,23.0925263 C11.7024474,23.1088421 11.7277105,23.1241053 11.7524474,23.1401579 C11.8511316,23.2051579 11.9519211,23.2664737 12.0550789,23.3243684 C12.0885,23.3433158 12.1219211,23.362 12.1556053,23.3798947 C12.1811316,23.3935789 12.2053421,23.4088421 12.2311316,23.4217368 C12.2129737,23.4235789 12.1950789,23.4264737 12.1769211,23.4285789 C12.0032368,23.4472632 11.8292895,23.4677895 11.6561316,23.4927895 C11.6527105,23.4933158 11.6492895,23.4938421 11.6458684,23.4941053 C11.4729737,23.5193684 11.3008684,23.5485789 11.1295526,23.5804211 C11.0940263,23.587 11.0582368,23.5935789 11.0229737,23.6004211 C10.8545526,23.6333158 10.6869211,23.6693684 10.5213947,23.7096316 C10.4982368,23.7156842 10.4750789,23.722 10.4519211,23.7280526 C10.3008684,23.7659474 10.1513947,23.8075263 10.0040263,23.8525263 C9.97507895,23.8612105 9.94560526,23.8696316 9.91692105,23.8788421 C9.75902632,23.9285789 9.60376316,23.9833158 9.45113158,24.042 C9.41744737,24.0548947 9.38455263,24.0683158 9.35113158,24.0817368 C9.20034211,24.1422632 9.05165789,24.2062105 8.90744737,24.2762105 C8.90086842,24.2791053 8.89428947,24.2817368 8.88797368,24.2848947 C8.74060526,24.3567368 8.59823684,24.4359474 8.45876316,24.5183158 C8.42718421,24.5372632 8.39560526,24.5556842 8.36455263,24.5748947 C8.22876316,24.6588421 8.09639474,24.7475263 7.96928947,24.8425263 C7.94823684,24.8577895 7.92823684,24.8748947 7.90744737,24.8909474 C7.79297368,24.9793684 7.68244737,25.0727895 7.57613158,25.1712105 C7.55455263,25.1909474 7.53218421,25.2098947 7.51113158,25.2304211 C7.39639474,25.3401579 7.28797368,25.4564737 7.18428947,25.5788421 C7.16113158,25.6062105 7.13876316,25.6346316 7.11613158,25.6625263 C7.01402632,25.7888421 6.91613158,25.9196316 6.82639474,26.0593684 C6.82402632,26.0635789 6.82086842,26.067 6.8185,26.0709474 C6.72771053,26.2133158 6.64613158,26.3654211 6.56902632,26.5225263 C6.55192105,26.5572632 6.53481579,26.5914737 6.51876316,26.627 C6.44586842,26.7848947 6.37902632,26.9491053 6.32086842,27.122 C6.31113158,27.1501579 6.30323684,27.1804211 6.29402632,27.2091053 C6.24271053,27.3701579 6.19797368,27.5383158 6.15981579,27.7127895 C6.15271053,27.7454211 6.14428947,27.7764737 6.13771053,27.8096316 C6.09876316,28.0025263 6.06928947,28.2043684 6.04718421,28.4135789 C6.04218421,28.4593684 6.0385,28.5062105 6.03455263,28.5527895 C6.01560526,28.772 6.00271053,28.997 6.00271053,29.2346316 L6.00271053,31.3851579 L6.00271053,31.3925263 C5.87744737,31.2875263 5.75744737,31.1772632 5.63665789,31.0680526 C5.62323684,31.0559474 5.60928947,31.0443684 5.59613158,31.032 C5.45955263,30.9080526 5.32665789,30.7798947 5.19534211,30.6501579 C5.16876316,30.6235789 5.14165789,30.5975263 5.11534211,30.5706842 C4.99165789,30.4464737 4.87086842,30.3191053 4.75244737,30.1901579 C4.72034211,30.1551579 4.6885,30.1201579 4.65692105,30.0848947 C4.54428947,29.9596316 4.43376316,29.8325263 4.32586842,29.7030526 C4.29007895,29.6598947 4.25507895,29.6159474 4.21981579,29.5722632 C4.11823684,29.447 4.01771053,29.3206842 3.92060526,29.1914737 C3.87981579,29.137 3.84060526,29.0812105 3.80060526,29.0259474 C3.71192105,28.9043684 3.62323684,28.7827895 3.53876316,28.6580526 C3.47692105,28.567 3.41928947,28.4738421 3.36007895,28.3812105 C3.29376316,28.2783158 3.22639474,28.1759474 3.16323684,28.0709474 C3.05271053,27.8875263 2.94613158,27.7022632 2.84481579,27.5138421 C2.82376316,27.4751579 2.80481579,27.4346316 2.78402632,27.3954211 C2.69560526,27.2272632 2.60955263,27.0583158 2.5285,26.8864737 C2.50902632,26.8454211 2.49113158,26.8033158 2.47218421,26.7622632 C2.39297368,26.5898947 2.31665789,26.4159474 2.24481579,26.2401579 C2.22797368,26.1993684 2.21244737,26.1580526 2.19613158,26.117 C2.12560526,25.9391053 2.0585,25.7598947 1.99560526,25.5791053 C1.98113158,25.5377895 1.96744737,25.4964737 1.9535,25.4551579 C1.89244737,25.2733158 1.83507895,25.0893684 1.78192105,24.9046316 C1.76981579,24.8625263 1.75744737,24.8204211 1.74586842,24.7780526 C1.69481579,24.5943684 1.64823684,24.4088421 1.60534211,24.2225263 C1.59455263,24.1772632 1.5835,24.1317368 1.5735,24.0859474 C1.53323684,23.9030526 1.49797368,23.7185789 1.46534211,23.5338421 C1.45665789,23.4835789 1.44665789,23.4338421 1.4385,23.3835789 C1.40902632,23.2025263 1.38481579,23.0204211 1.36244737,22.8380526 C1.35586842,22.7827895 1.34744737,22.7285789 1.34165789,22.6733158 C1.32165789,22.4906842 1.30797368,22.307 1.29560526,22.1233158 C1.29218421,22.0685789 1.28613158,22.0141053 1.28323684,21.9591053 C1.27034211,21.722 1.2635,21.4843684 1.2635,21.2454211 C1.2635,13.9454211 7.20218421,8.00673684 14.5021842,8.00673684 C21.8019211,8.00673684 27.7408684,13.9454211 27.7408684,21.2454211 C27.7408684,21.4843684 27.7340263,21.722 27.7211316,21.9591053 C27.7179737,22.0141053 27.7121842,22.0685789 27.7085,22.1233158 C27.6961316,22.307 27.6824474,22.4906842 27.6627105,22.6733158 C27.6566579,22.7285789 27.6482368,22.7827895 27.6416579,22.8380526 C27.6195526,23.0204211 27.5953421,23.2025263 27.5656053,23.3835789 C27.5574474,23.4338421 27.5477105,23.4835789 27.5387632,23.5338421 C27.5061316,23.7185789 27.4711316,23.9030526 27.4306053,24.0859474 C27.4206053,24.1317368 27.4095526,24.1772632 27.3990263,24.2225263 C27.3558684,24.4088421 27.3092895,24.5943684 27.2585,24.7780526 C27.2466579,24.8204211 27.2345526,24.8625263 27.2224474,24.9046316 C27.1690263,25.0893684 27.1116579,25.2733158 27.0506053,25.4551579 C27.0366579,25.4964737 27.0229737,25.5377895 27.0087632,25.5791053 C26.9458684,25.7598947 26.8787632,25.9391053 26.8082368,26.117 C26.7919211,26.1580526 26.7761316,26.1993684 26.7595526,26.2401579 C26.6877105,26.4159474 26.6111316,26.5898947 26.5319211,26.7622632 C26.5129737,26.8033158 26.4953421,26.8454211 26.4756053,26.8864737 M14.5021842,22.702 C12.4313947,22.702 10.7469211,21.0175263 10.7469211,18.947 C10.7469211,16.8762105 12.4313947,15.1917368 14.5021842,15.1917368 C16.5729737,15.1917368 18.2571842,16.8762105 18.2571842,18.947 C18.2571842,21.0175263 16.5729737,22.702 14.5021842,22.702 M21.4061316,32.5364737 C21.3845526,32.5496316 21.3632368,32.5635789 21.3416579,32.5764737 C21.1927105,32.6667368 21.0411316,32.7527895 20.8882368,32.8375263 C20.8500789,32.8585789 20.8127105,32.8804211 20.7742895,32.9009474 C20.6429737,32.972 20.5092895,33.0388421 20.3753421,33.1056842 C20.3129737,33.1364737 20.2513947,33.1688421 20.1885,33.1985789 C20.0813947,33.2496316 19.9724474,33.2972632 19.8637632,33.3454211 C19.7729737,33.3859474 19.6829737,33.4272632 19.5913947,33.4654211 C19.5774474,33.4714737 19.5640263,33.4777895 19.5500789,33.4838421 L19.5500789,33.482 L19.5500789,29.0033158 C19.5500789,28.6546316 19.2674474,28.3717368 18.9185,28.3717368 C18.5695526,28.3717368 18.2866579,28.6546316 18.2866579,29.0033158 L18.2866579,33.9301579 L18.2866579,33.9312105 C18.2740263,33.9348947 18.2613947,33.9372632 18.2485,33.9409474 C17.9648158,34.0246316 17.6785,34.0991053 17.3900789,34.1633158 C17.3698158,34.1677895 17.3498158,34.1727895 17.3295526,34.1772632 C17.0290263,34.2430526 16.7250789,34.2977895 16.4177105,34.3422632 C16.1116579,34.3864737 15.8040263,34.4198947 15.4958684,34.4430526 C15.4656053,34.4454211 15.4353421,34.4480526 15.4048158,34.4501579 C14.7927105,34.4917368 14.1782368,34.4906842 13.5663947,34.4475263 C13.5332368,34.4451579 13.4998158,34.4425263 13.4666579,34.4401579 C13.1606053,34.4162105 12.8553421,34.3817368 12.5516579,34.337 C12.2463947,34.2917368 11.9445526,34.2364737 11.6466579,34.1706842 C11.6195526,34.1648947 11.5929737,34.1580526 11.5661316,34.152 C11.2740263,34.0859474 10.9837632,34.0106842 10.6963947,33.9243684 C10.6911316,33.9227895 10.6858684,33.9217368 10.6806053,33.9201579 L10.6806053,33.9196316 L10.6806053,29.0033158 C10.6806053,28.6546316 10.3979737,28.3717368 10.0490263,28.3717368 C9.70007895,28.3717368 9.41718421,28.6546316 9.41718421,29.0033158 L9.41718421,33.4672632 L9.41718421,33.4680526 C9.41192105,33.4656842 9.40665789,33.4633158 9.40113158,33.4609474 C9.30455263,33.4206842 9.21007895,33.3764737 9.11455263,33.3338421 C9.01218421,33.2880526 8.90902632,33.2435789 8.80797368,33.1951579 C8.74613158,33.1656842 8.68560526,33.1338421 8.62428947,33.1035789 C8.49086842,33.037 8.35718421,32.9701579 8.22613158,32.8991053 C8.18928947,32.8793684 8.15323684,32.8580526 8.11665789,32.8380526 C7.96323684,32.7527895 7.81086842,32.6662105 7.66086842,32.5756842 C7.64086842,32.5635789 7.62113158,32.5506842 7.60139474,32.5385789 C7.48902632,32.4696316 7.37613158,32.402 7.26586842,32.3301579 L7.26586842,32.3233158 L7.26586842,29.2346316 C7.26586842,25.9725263 9.43007895,24.5804211 14.5021842,24.5804211 C19.5742895,24.5804211 21.7382368,25.9725263 21.7382368,29.2346316 L21.7382368,32.3233158 L21.7382368,32.3301579 C21.6290263,32.4017368 21.5171842,32.4683158 21.4061316,32.5364737 M42.1137632,1.26331579 C45.7613947,1.26331579 48.7285,4.23068421 48.7285,7.87831579 C48.7285,8.09963158 48.7166579,8.31857895 48.6953421,8.53463158 C48.6829737,8.65831579 48.6600789,8.77963158 48.6411316,8.90173684 C48.6269211,8.99173684 48.6174474,9.08331579 48.5998158,9.17226316 C48.5706053,9.31647368 48.5319211,9.45778947 48.4935,9.59936842 C48.4761316,9.66357895 48.4627105,9.72936842 48.4437632,9.79252632 C48.4006053,9.93489474 48.3479737,10.0735789 48.2950789,10.212 C48.2724474,10.2727895 48.2529737,10.3351579 48.2285,10.3948947 C48.1745526,10.5246316 48.1124474,10.6501579 48.0508684,10.7759474 C48.0185,10.842 47.9892895,10.9101579 47.9550789,10.9748947 C47.8953421,11.0872632 47.8277105,11.1951579 47.7616579,11.3038421 C47.7163947,11.3780526 47.6740263,11.4543684 47.6261316,11.5267368 C47.5629737,11.6217368 47.4932368,11.7122632 47.4253421,11.8041053 C47.3656053,11.8841053 47.3087632,11.9662105 47.2458684,12.0435789 C47.1792895,12.1256842 47.1061316,12.2033158 47.0350789,12.2822632 C46.9750789,12.3496316 46.9192895,12.4204211 46.8561316,12.4854211 L46.8561316,12.4796316 L46.8561316,12.052 C46.8561316,11.8622632 46.8411316,11.6864737 46.8198158,11.5172632 C46.8150789,11.4804211 46.8108684,11.4435789 46.8053421,11.4077895 C46.7803421,11.247 46.7477105,11.0941053 46.7048158,10.9517368 C46.6979737,10.9293684 46.6895526,10.9091053 46.6824474,10.887 C46.6408684,10.7596316 46.5924474,10.6396316 46.5379737,10.5262105 C46.5269211,10.5030526 46.5166579,10.4788421 46.5050789,10.4562105 C46.4424474,10.3354211 46.3729737,10.2233158 46.2971842,10.1180526 C46.2806053,10.0951579 46.2635,10.0738421 46.2463947,10.0517368 C46.1719211,9.95515789 46.0932368,9.86384211 46.0087632,9.78015789 C46.0011316,9.77252632 45.9940263,9.76384211 45.9861316,9.75621053 C45.8945526,9.66752632 45.7969211,9.58831579 45.6961316,9.51331579 C45.6737632,9.49647368 45.6511316,9.48015789 45.6279737,9.46410526 C45.5261316,9.39278947 45.4219211,9.32621053 45.3129737,9.267 C45.3021842,9.26121053 45.2908684,9.25621053 45.2800789,9.25042105 C45.1769211,9.19568421 45.0713947,9.14647368 44.9637632,9.10121053 C44.9411316,9.09173684 44.9187632,9.08173684 44.8958684,9.07278947 C44.7819211,9.027 44.6663947,8.98621053 44.5503421,8.95015789 C44.5287632,8.94357895 44.5077105,8.93778947 44.4861316,8.93147368 C44.3769211,8.89910526 44.2674474,8.87015789 44.1582368,8.84515789 C44.1442895,8.842 44.1306053,8.83831579 44.1171842,8.83515789 C44.1082368,8.83331579 44.0995526,8.83094737 44.0908684,8.82910526 C44.1048158,8.81647368 44.1166579,8.802 44.1300789,8.78910526 C44.1695526,8.75147368 44.2074474,8.71252632 44.2448158,8.67278947 C44.2735,8.642 44.3021842,8.61121053 44.3295526,8.57936842 C44.3650789,8.53805263 44.3985,8.49542105 44.4316579,8.45226316 C44.4574474,8.41857895 44.4832368,8.38542105 44.5077105,8.35068421 C44.5387632,8.30621053 44.5677105,8.26015789 44.5966579,8.21357895 C44.6190263,8.17778947 44.6419211,8.142 44.6627105,8.10489474 C44.6895526,8.057 44.7137632,8.00752632 44.7382368,7.95778947 C44.7566579,7.91989474 44.7758684,7.88278947 44.7929737,7.84410526 C44.8156053,7.79226316 44.8348158,7.73857895 44.8545526,7.68542105 C44.8690263,7.64647368 44.8848158,7.60857895 44.8971842,7.56910526 C44.9153421,7.51252632 44.9292895,7.45463158 44.9442895,7.39673684 C44.9540263,7.35831579 44.9656053,7.32068421 44.9737632,7.28173684 C44.9874474,7.217 44.9963947,7.15068421 45.0056053,7.08436842 C45.0103421,7.05094737 45.0174474,7.01805263 45.0211316,6.98410526 C45.0316579,6.88331579 45.0374474,6.78094737 45.0374474,6.67726316 C45.0374474,5.06515789 43.7258684,3.75357895 42.1137632,3.75357895 C40.5016579,3.75357895 39.1900789,5.06515789 39.1900789,6.67726316 C39.1900789,6.78094737 39.1958684,6.88331579 39.2063947,6.98410526 C39.2100789,7.01805263 39.2171842,7.05094737 39.2219211,7.08436842 C39.2311316,7.15068421 39.2400789,7.217 39.2537632,7.28173684 C39.2619211,7.32068421 39.2735,7.35831579 39.2832368,7.39673684 C39.2982368,7.45463158 39.3124474,7.51252632 39.3303421,7.56910526 C39.3432368,7.60884211 39.3587632,7.647 39.3732368,7.68594737 C39.3927105,7.73910526 39.4121842,7.79226316 39.4345526,7.84384211 C39.4516579,7.88278947 39.4708684,7.92015789 39.4898158,7.95805263 C39.5137632,8.00752632 39.5379737,8.057 39.5650789,8.10489474 C39.5858684,8.142 39.6087632,8.17778947 39.6311316,8.21357895 C39.6598158,8.26015789 39.6887632,8.30621053 39.7200789,8.35068421 C39.7442895,8.38542105 39.7700789,8.41857895 39.7958684,8.45226316 C39.8292895,8.49542105 39.8627105,8.53805263 39.8979737,8.57936842 C39.9256053,8.61121053 39.9540263,8.642 39.9829737,8.67278947 C40.0200789,8.71252632 40.0582368,8.75147368 40.0974474,8.78910526 C40.1111316,8.802 40.1229737,8.81647368 40.1369211,8.82910526 C40.1279737,8.83094737 40.1192895,8.83331579 40.1106053,8.83515789 C40.0969211,8.83831579 40.0832368,8.842 40.0695526,8.84515789 C39.9603421,8.87015789 39.8508684,8.89910526 39.7413947,8.93147368 C39.7200789,8.93778947 39.6985,8.94357895 39.6771842,8.95015789 C39.5611316,8.98621053 39.4458684,9.027 39.3316579,9.07278947 C39.3087632,9.08173684 39.2863947,9.09173684 39.2637632,9.10121053 C39.1563947,9.14647368 39.0508684,9.19568421 38.9474474,9.25042105 C38.9366579,9.25621053 38.9253421,9.26121053 38.9145526,9.267 C38.8058684,9.32621053 38.7013947,9.39278947 38.5995526,9.46410526 C38.5766579,9.48015789 38.5540263,9.49647368 38.5316579,9.51331579 C38.4306053,9.58831579 38.3329737,9.66752632 38.2413947,9.75621053 C38.2335,9.76384211 38.2266579,9.77252632 38.2187632,9.78015789 C38.1342895,9.86384211 38.0556053,9.95542105 37.9811316,10.052 C37.9642895,10.0738421 37.9469211,10.0951579 37.9306053,10.1177895 C37.8548158,10.2230526 37.7850789,10.3354211 37.7227105,10.4562105 C37.7108684,10.4788421 37.7008684,10.5030526 37.6898158,10.5262105 C37.6353421,10.6396316 37.5866579,10.7596316 37.5453421,10.887 C37.5382368,10.9091053 37.5295526,10.9293684 37.5229737,10.9517368 C37.4800789,11.0941053 37.4474474,11.247 37.4221842,11.4077895 C37.4169211,11.4435789 37.4124474,11.4804211 37.4077105,11.5172632 C37.3863947,11.6864737 37.3716579,11.8622632 37.3716579,12.052 L37.3716579,12.4796316 L37.3716579,12.4854211 C37.3082368,12.4204211 37.2527105,12.3496316 37.1924474,12.2822632 C37.1216579,12.2033158 37.0482368,12.1256842 36.9813947,12.0435789 C36.9187632,11.9662105 36.8616579,11.8841053 36.8024474,11.8041053 C36.7345526,11.7122632 36.6645526,11.6217368 36.6016579,11.5267368 C36.5535,11.4543684 36.5111316,11.3780526 36.4658684,11.3038421 C36.3998158,11.1951579 36.3324474,11.0872632 36.2727105,10.9748947 C36.2382368,10.9101579 36.2092895,10.842 36.1769211,10.7759474 C36.1150789,10.6501579 36.0527105,10.5246316 35.9992895,10.3948947 C35.9745526,10.3351579 35.9553421,10.2727895 35.9321842,10.212 C35.8798158,10.0735789 35.8271842,9.93489474 35.7840263,9.79252632 C35.7648158,9.72936842 35.7513947,9.66357895 35.7340263,9.59936842 C35.6958684,9.45778947 35.6569211,9.31647368 35.6279737,9.17226316 C35.6100789,9.08331579 35.6006053,8.99173684 35.5866579,8.90173684 C35.5671842,8.77963158 35.5445526,8.65831579 35.5321842,8.53463158 C35.5108684,8.31857895 35.4990263,8.09963158 35.4990263,7.87831579 C35.4990263,4.23068421 38.4663947,1.26331579 42.1137632,1.26331579 M42.1137632,8.33752632 C41.1985,8.33752632 40.4537632,7.59278947 40.4537632,6.67726316 C40.4537632,5.76173684 41.1985,5.017 42.1137632,5.017 C43.0292895,5.017 43.7740263,5.76173684 43.7740263,6.67726316 C43.7740263,7.59278947 43.0292895,8.33752632 42.1137632,8.33752632 M45.2298158,13.7101579 C45.0661316,13.7977895 44.8982368,13.8785789 44.7269211,13.9527895 C44.6827105,13.9717368 44.6377105,13.9883158 44.5932368,14.0064737 C44.4540263,14.0630526 44.3121842,14.1148947 44.1682368,14.162 C44.1185,14.1783158 44.0690263,14.1951579 44.0190263,14.2104211 C43.8358684,14.2656842 43.6500789,14.3148947 43.4606053,14.3543684 C43.4366579,14.3593684 43.4116579,14.3625263 43.3871842,14.3672632 C43.2177105,14.4004211 43.0453421,14.4262105 42.8713947,14.4462105 C42.8190263,14.4522632 42.7669211,14.4577895 42.7140263,14.4625263 C42.5161316,14.4804211 42.3166579,14.4927895 42.1137632,14.4927895 C41.9111316,14.4927895 41.7113947,14.4804211 41.5135,14.4625263 C41.4608684,14.4577895 41.4085,14.4522632 41.3561316,14.4462105 C41.1821842,14.4262105 41.0100789,14.4004211 40.8403421,14.3672632 C40.8161316,14.3625263 40.7911316,14.3593684 40.7669211,14.3543684 C40.5774474,14.3148947 40.3916579,14.2656842 40.2085,14.2104211 C40.1585,14.1951579 40.1090263,14.1783158 40.0595526,14.162 C39.9156053,14.1148947 39.7737632,14.0630526 39.6342895,14.0064737 C39.5898158,13.9883158 39.5450789,13.9717368 39.5008684,13.9527895 C39.3292895,13.8785789 39.1613947,13.7977895 38.9977105,13.7101579 C38.9550789,13.6872632 38.9137632,13.6614737 38.8713947,13.6375263 C38.7924474,13.5927895 38.7124474,13.5498947 38.6350789,13.5017368 L38.6350789,13.4935789 L38.6350789,12.052 C38.6350789,10.7735789 39.2266579,9.92226316 42.1137632,9.92226316 C45.0011316,9.92226316 45.5927105,10.7735789 45.5927105,12.052 L45.5927105,13.4935789 L45.5927105,13.5017368 C45.5150789,13.5498947 45.4350789,13.5927895 45.3563947,13.6375263 C45.3137632,13.6614737 45.2724474,13.6872632 45.2298158,13.7101579 M42.1137632,26.7348947 C41.8713947,26.7348947 41.6327105,26.7496316 41.3961316,26.7712105 C41.3250789,26.7775263 41.2545526,26.7867368 41.1837632,26.7948947 C41.0071842,26.8159474 40.8321842,26.8425263 40.6592895,26.8754211 C40.5950789,26.8872632 40.5303421,26.8975263 40.4663947,26.9112105 C40.2403421,26.9596316 40.0171842,27.0159474 39.7985,27.0833158 C39.7606053,27.0948947 39.7237632,27.1096316 39.6863947,27.1217368 C39.4985,27.1825263 39.3137632,27.2506842 39.1316579,27.3251579 C39.0761316,27.3477895 39.0211316,27.3714737 38.9661316,27.3954211 C38.7777105,27.4780526 38.5924474,27.5662105 38.4121842,27.6627895 C38.3900789,27.6746316 38.3671842,27.6851579 38.3453421,27.6972632 C37.9158684,27.9312105 37.5106053,28.2067368 37.1316579,28.5164737 C37.1148158,28.5301579 37.0985,28.5438421 37.0816579,28.5575263 C36.5277105,29.0180526 36.0356053,29.5556842 35.6211316,30.1601579 C35.5958684,30.1975263 35.5706053,30.2348947 35.5456053,30.2727895 C35.4385,30.4343684 35.3382368,30.6009474 35.2429737,30.7701579 C35.2185,30.8138421 35.1924474,30.8559474 35.1690263,30.9001579 C35.1658684,30.9059474 35.1621842,30.9114737 35.1590263,30.9172632 L27.5771842,27.5156842 L27.5708684,27.5127895 C27.6058684,27.4398947 27.6435,27.3683158 27.6774474,27.2943684 C27.7037632,27.2367368 27.7303421,27.1785789 27.7563947,27.1201579 C27.8519211,26.9046316 27.9429737,26.687 28.0279737,26.467 C28.0398158,26.4362105 28.0527105,26.4054211 28.0645526,26.3743684 C28.2653421,25.8438421 28.4363947,25.3004211 28.5742895,24.747 C28.5769211,24.7367368 28.5790263,24.7262105 28.5813947,24.7159474 C28.6437632,24.4635789 28.6982368,24.2093684 28.7469211,23.9530526 C28.7577105,23.8956842 28.7674474,23.8380526 28.7777105,23.7804211 C28.8153421,23.5691053 28.8477105,23.3562105 28.8761316,23.1427895 C28.8858684,23.0683158 28.8961316,22.9938421 28.9045526,22.9188421 C28.9285,22.7135789 28.9466579,22.507 28.9619211,22.2998947 C28.9669211,22.2256842 28.9745526,22.1517368 28.9787632,22.0772632 C28.9945526,21.8009474 29.0042895,21.5241053 29.0042895,21.2454211 C29.0042895,19.182 28.5682368,17.2193684 27.7879737,15.4406842 L35.4163947,12.0183158 C35.4569211,12.0838421 35.4995526,12.1483158 35.5421842,12.2127895 C35.5624474,12.2433158 35.5811316,12.2746316 35.6016579,12.3046316 C35.7274474,12.4891053 35.8613947,12.667 36.0019211,12.8396316 C36.0282368,12.8722632 36.0556053,12.9043684 36.0824474,12.9367368 C36.3758684,13.2862105 36.7006053,13.6117368 37.0548158,13.9091053 C37.0861316,13.9351579 37.1169211,13.9614737 37.1482368,13.9872632 C37.3085,14.1177895 37.4727105,14.2443684 37.6442895,14.3630526 L37.6453421,14.3635789 C37.6585,14.3725263 37.6721842,14.3801579 37.6853421,14.3888421 C37.7292895,14.4188421 37.7750789,14.4454211 37.8192895,14.4741053 C37.9685,14.5717368 38.1206053,14.6648947 38.2763947,14.7522632 C38.3437632,14.7898947 38.4119211,14.8256842 38.4803421,14.8612105 C38.6261316,14.9375263 38.7740263,15.0085789 38.9237632,15.0751579 C38.9890263,15.1043684 39.0535,15.1343684 39.1192895,15.1617368 C39.3348158,15.2504211 39.5537632,15.3293684 39.7753421,15.3985789 C39.9977105,15.4677895 40.2242895,15.5272632 40.4542895,15.5767368 C40.5219211,15.5914737 40.5903421,15.6030526 40.6587632,15.6159474 C40.8303421,15.6480526 41.0037632,15.6748947 41.1792895,15.6956842 C41.2500789,15.7041053 41.3206053,15.7130526 41.3913947,15.7196316 C41.6295526,15.7414737 41.8698158,15.7564737 42.1137632,15.7564737 C42.3577105,15.7564737 42.5979737,15.7414737 42.8361316,15.7196316 C42.9071842,15.7130526 42.9774474,15.7041053 43.0482368,15.6956842 C43.2235,15.6748947 43.3971842,15.6480526 43.5690263,15.6159474 C43.6371842,15.6030526 43.7056053,15.5914737 43.7735,15.5767368 C44.0035,15.5272632 44.2298158,15.4677895 44.4521842,15.3985789 C44.6740263,15.3293684 44.8929737,15.2504211 45.1082368,15.1617368 C45.1740263,15.1343684 45.2385,15.1043684 45.3037632,15.0751579 C45.4537632,15.0085789 45.6013947,14.9375263 45.7474474,14.8612105 C45.8158684,14.8256842 45.8837632,14.7898947 45.9511316,14.7522632 C46.1069211,14.6648947 46.2590263,14.5717368 46.4082368,14.4741053 C46.4527105,14.4454211 46.4982368,14.4188421 46.5421842,14.3888421 C46.5553421,14.3801579 46.5692895,14.3725263 46.5827105,14.3633158 C46.5829737,14.3630526 46.5832368,14.3630526 46.5835,14.3630526 C46.7550789,14.2443684 46.9190263,14.1177895 47.0790263,13.9872632 C47.1108684,13.9614737 47.1416579,13.9351579 47.1729737,13.9091053 C47.5271842,13.6117368 47.8519211,13.2862105 48.1450789,12.9367368 C48.1721842,12.9043684 48.1992895,12.8722632 48.2258684,12.8396316 C48.3661316,12.667 48.5003421,12.4891053 48.6258684,12.3046316 C48.6463947,12.2746316 48.6653421,12.2433158 48.6856053,12.2127895 C48.7913947,12.0525263 48.8906053,11.8880526 48.9850789,11.7204211 C49.0106053,11.6741053 49.0379737,11.6288421 49.0627105,11.5822632 C49.1603421,11.4001579 49.2492895,11.2133158 49.3324474,11.0233158 C49.3600789,10.9598947 49.3861316,10.8959474 49.4121842,10.832 C49.4845526,10.6533158 49.5521842,10.4725263 49.6116579,10.2877895 C49.6292895,10.2333158 49.6450789,10.1783158 49.6616579,10.1235789 C49.7153421,9.94357895 49.7619211,9.76068421 49.8027105,9.57594737 C49.8163947,9.51489474 49.8303421,9.45410526 49.8424474,9.39252632 C49.8842895,9.17936842 49.9177105,8.96331579 49.9416579,8.74410526 C49.9474474,8.69384211 49.9511316,8.64305263 49.9558684,8.59252632 C49.9769211,8.35673684 49.9919211,8.11936842 49.9919211,7.87831579 C49.9919211,3.53410526 46.4577105,0.000157894737 42.1137632,0.000157894737 C37.7698158,0.000157894737 34.2358684,3.53410526 34.2358684,7.87831579 C34.2358684,8.11936842 34.2506053,8.35673684 34.2716579,8.59252632 C34.2763947,8.64305263 34.2803421,8.69384211 34.2858684,8.74410526 C34.3100789,8.96331579 34.3435,9.17936842 34.3850789,9.39252632 C34.3971842,9.45410526 34.4113947,9.51489474 34.4248158,9.57594737 C34.4658684,9.76068421 34.5121842,9.94357895 34.5661316,10.1235789 C34.5824474,10.1783158 34.5985,10.2333158 34.6158684,10.2877895 C34.6756053,10.4725263 34.7427105,10.6533158 34.8156053,10.832 C34.8235,10.852 34.8321842,10.8722632 34.8408684,10.8922632 L34.8379737,10.8935789 L27.2321842,14.3054211 C24.7682368,9.80357895 19.9861316,6.74357895 14.5021842,6.74357895 C6.50560526,6.74357895 7.89473684e-05,13.2488421 7.89473684e-05,21.2454211 C7.89473684e-05,21.5241053 0.00955263158,21.8009474 0.0256052632,22.0772632 C0.0298157895,22.1517368 0.0371842105,22.2256842 0.0424473684,22.2998947 C0.0577105263,22.507 0.0756052632,22.7135789 0.0995526316,22.9188421 C0.108236842,22.9938421 0.118236842,23.0683158 0.128236842,23.1427895 C0.156394737,23.3562105 0.188763158,23.5691053 0.226394737,23.7804211 C0.236394737,23.8380526 0.246394737,23.8956842 0.257447368,23.9530526 C0.306131579,24.2093684 0.360605263,24.4635789 0.422710526,24.7159474 C0.425342105,24.7262105 0.427447368,24.7367368 0.429815789,24.747 C0.567973684,25.3004211 0.738763158,25.8438421 0.939815789,26.3743684 C0.951657895,26.4054211 0.964289474,26.4362105 0.976394737,26.467 C1.06139474,26.687 1.15218421,26.9046316 1.24797368,27.1201579 C1.27376316,27.1785789 1.30007895,27.2367368 1.32692105,27.2943684 C1.41376316,27.4835789 1.50560526,27.6701579 1.60060526,27.8551579 C1.63376316,27.9196316 1.66586842,27.9848947 1.69981579,28.0488421 C1.80297368,28.2430526 1.91192105,28.4335789 2.0235,28.6227895 C2.05665789,28.6785789 2.0885,28.7351579 2.12218421,28.7904211 C2.24507895,28.9917368 2.37376316,29.1896316 2.50639474,29.3854211 C2.58455263,29.4998947 2.66613158,29.6114737 2.74718421,29.7235789 C2.81481579,29.817 2.88244737,29.9106842 2.95218421,30.0022632 C3.04718421,30.1275263 3.14428947,30.2509474 3.24323684,30.3727895 C3.30060526,30.4435789 3.35955263,30.5135789 3.4185,30.5833158 C3.52981579,30.7151579 3.64139474,30.8464737 3.75692105,30.9743684 C3.78797368,31.0085789 3.82060526,31.0414737 3.85192105,31.0751579 C4.13428947,31.3814737 4.42928947,31.677 4.73902632,31.9593684 C4.74560526,31.9651579 4.75192105,31.9717368 4.7585,31.9775263 C4.89244737,32.0993684 5.03060526,32.2167368 5.16902632,32.3335789 C5.23113158,32.3859474 5.29323684,32.4385789 5.35665789,32.4898947 C5.48692105,32.5962105 5.61902632,32.6998947 5.75297368,32.8017368 C5.83060526,32.8606842 5.90955263,32.9177895 5.9885,32.9751579 C6.08481579,33.0451579 6.17744737,33.1185789 6.27534211,33.1864737 C6.30771053,33.2088421 6.34218421,33.2277895 6.37455263,33.2498947 C6.58876316,33.3954211 6.80692105,33.5348947 7.0285,33.6685789 C7.10665789,33.7159474 7.18692105,33.7596316 7.26586842,33.8054211 L7.31692105,33.8346316 C7.48928947,33.9330526 7.66297368,34.0288421 7.83928947,34.1201579 C7.92428947,34.1643684 8.00928947,34.2088421 8.09534211,34.2514737 C8.35981579,34.3817368 8.62718421,34.5067368 8.89928947,34.6206842 C8.91139474,34.6259474 8.92402632,34.6301579 8.93613158,34.6354211 C9.09428947,34.7009474 9.25665789,34.7572632 9.41718421,34.8172632 L9.41718421,34.8251579 C9.53428947,34.8691053 9.65244737,34.9101579 9.77060526,34.9509474 C9.79613158,34.9596316 9.82060526,34.9706842 9.84613158,34.9793684 L9.84718421,34.9793684 C9.88481579,34.9922632 9.92297368,35.0027895 9.96086842,35.0154211 C10.0924474,35.0588421 10.2245526,35.1012105 10.3571842,35.1412105 C10.4250789,35.1612105 10.4935,35.1798947 10.5616579,35.1991053 C10.6013947,35.2104211 10.6408684,35.222 10.6806053,35.2330526 L10.6806053,35.2314737 C10.7795526,35.2588421 10.8782368,35.2875263 10.9779737,35.3125263 C11.0219211,35.3235789 11.0663947,35.3325263 11.1106053,35.3433158 C11.3653421,35.4046316 11.6213947,35.4580526 11.8785,35.5054211 C11.9848158,35.5248947 12.0903421,35.5454211 12.1974474,35.5625263 C12.3000789,35.5793684 12.4035,35.5925263 12.5063947,35.607 C12.6292895,35.6241053 12.7524474,35.6401579 12.8761316,35.6541053 C12.9706053,35.6648947 13.0650789,35.6743684 13.1600789,35.6833158 C13.3035,35.6964737 13.4477105,35.7072632 13.5921842,35.7162105 C13.6700789,35.7212105 13.7479737,35.727 13.8258684,35.7306842 C14.0500789,35.7409474 14.2753421,35.7475263 14.5021842,35.7475263 C14.8566579,35.7475263 15.2098158,35.7306842 15.5621842,35.7046316 C15.6298158,35.6998947 15.6977105,35.6951579 15.7650789,35.6893684 C16.1171842,35.6585789 16.4677105,35.6172632 16.8161316,35.5606842 C16.8413947,35.557 16.8658684,35.5517368 16.8908684,35.5475263 C17.2511316,35.4872632 17.6092895,35.4143684 17.9645526,35.327 C17.9761316,35.3241053 17.9879737,35.3214737 17.9995526,35.3185789 C18.0961316,35.2948947 18.1906053,35.2612105 18.2866579,35.2348947 L18.2866579,35.2433158 C18.5492895,35.1725263 18.8085,35.0933158 19.0648158,35.0083158 C19.0829737,35.0022632 19.1013947,34.9983158 19.1195526,34.9922632 C19.1200789,34.9922632 19.1203421,34.9917368 19.1208684,34.9917368 C19.1453421,34.9835789 19.1687632,34.9730526 19.1932368,34.9646316 C19.3124474,34.9238421 19.4321842,34.8838421 19.5500789,34.8398947 L19.5500789,34.8309474 C19.7016579,34.7746316 19.8548158,34.7217368 20.0042895,34.6604211 C20.0329737,34.6488421 20.0621842,34.6385789 20.0906053,34.6264737 C20.3621842,34.5130526 20.6285,34.3893684 20.8921842,34.2598947 C20.9816579,34.2159474 21.0692895,34.1696316 21.1574474,34.1235789 C21.3313947,34.0341053 21.5029737,33.9396316 21.6729737,33.8427895 C21.7737632,33.7854211 21.8748158,33.7291053 21.9740263,33.6696316 C22.1958684,33.5359474 22.4137632,33.3964737 22.6282368,33.2509474 C22.6613947,33.2283158 22.6961316,33.2091053 22.7290263,33.1864737 C22.7292895,33.1862105 22.7295526,33.1856842 22.7300789,33.1854211 C22.8277105,33.1180526 22.9200789,33.0448947 23.0156053,32.9751579 C23.0945526,32.9177895 23.1737632,32.8606842 23.2513947,32.8017368 C23.3853421,32.6998947 23.5174474,32.5962105 23.6477105,32.4898947 C23.7108684,32.4385789 23.7729737,32.3859474 23.8350789,32.3335789 C23.9737632,32.2167368 24.1119211,32.0993684 24.2458684,31.9775263 C24.2524474,31.9717368 24.2585,31.9651579 24.2653421,31.9593684 C24.5737632,31.6780526 24.8690263,31.382 25.1524474,31.0751579 C25.1837632,31.0414737 25.2163947,31.0085789 25.2471842,30.9743684 C25.3629737,30.8464737 25.4745526,30.7151579 25.5858684,30.5833158 C25.6445526,30.5135789 25.7035,30.4435789 25.7611316,30.3727895 C25.8600789,30.2509474 25.9571842,30.1275263 26.0521842,30.0022632 C26.1219211,29.9106842 26.1895526,29.817 26.2569211,29.7235789 C26.3379737,29.6114737 26.4198158,29.4998947 26.4977105,29.3854211 C26.6303421,29.1896316 26.7592895,28.9917368 26.8819211,28.7904211 C26.9142895,28.7375263 26.9448158,28.6838421 26.9763947,28.6304211 L34.6616579,32.0783158 L34.6621842,32.0785789 C34.6550789,32.0985789 34.6463947,32.1180526 34.6398158,32.1383158 C34.6266579,32.1775263 34.6098158,32.2148947 34.5971842,32.2543684 C34.5263947,32.4791053 34.4692895,32.7075263 34.4192895,32.937 C34.4129737,32.9659474 34.4029737,32.9938421 34.3971842,33.0227895 C34.3450789,33.2751579 34.3063947,33.5306842 34.2795526,33.7877895 C34.2511316,34.0588421 34.2358684,34.3338421 34.2358684,34.6127895 C34.2358684,34.8538421 34.2506053,35.0912105 34.2716579,35.327 C34.2763947,35.3775263 34.2803421,35.4280526 34.2858684,35.4785789 C34.3100789,35.6977895 34.3435,35.9138421 34.3850789,36.1272632 C34.3971842,36.1885789 34.4113947,36.2493684 34.4248158,36.3104211 C34.4658684,36.4951579 34.5121842,36.6780526 34.5661316,36.8577895 C34.5824474,36.9127895 34.5985,36.9677895 34.6158684,37.0222632 C34.6756053,37.207 34.7427105,37.3877895 34.8156053,37.5662105 C34.8413947,37.6304211 34.8674474,37.6943684 34.8950789,37.7577895 C34.9782368,37.9480526 35.0674474,38.1348947 35.1648158,38.3167368 C35.1895526,38.3633158 35.2169211,38.4085789 35.2427105,38.4546316 C35.3369211,38.6225263 35.4361316,38.7872632 35.5421842,38.9472632 C35.5624474,38.9777895 35.5811316,39.0091053 35.6016579,39.0393684 C35.7274474,39.2233158 35.8613947,39.4014737 36.0019211,39.5741053 C36.0282368,39.6064737 36.0556053,39.6388421 36.0824474,39.6712105 C36.3758684,40.0209474 36.7006053,40.3462105 37.0548158,40.6435789 C37.0861316,40.6696316 37.1169211,40.6959474 37.1482368,40.7217368 C37.3085,40.8522632 37.4727105,40.9788421 37.6442895,41.0972632 C37.6582368,41.107 37.6727105,41.1148947 37.6866579,41.1243684 C37.7279737,41.1525263 37.7711316,41.1775263 37.8129737,41.2051579 C37.9653421,41.3046316 38.1203421,41.3996316 38.2798158,41.4885789 C38.3442895,41.5246316 38.4098158,41.5591053 38.4753421,41.5933158 C38.6245526,41.6714737 38.7763947,41.7443684 38.9300789,41.8127895 C38.9919211,41.8401579 39.0532368,41.8688421 39.1158684,41.8948947 C39.3319211,41.9841053 39.5516579,42.0633158 39.7745526,42.1327895 C39.9974474,42.2022632 40.2248158,42.262 40.4556053,42.3117368 C40.5221842,42.3259474 40.5890263,42.3372632 40.6558684,42.3498947 C40.8287632,42.3825263 41.0037632,42.4093684 41.1803421,42.4304211 C41.2506053,42.4385789 41.3206053,42.4475263 41.3908684,42.4543684 C41.6292895,42.4759474 41.8698158,42.4906842 42.1137632,42.4906842 C42.3579737,42.4906842 42.5982368,42.4759474 42.8366579,42.4543684 C42.9071842,42.4475263 42.9771842,42.4385789 43.0471842,42.4304211 C43.2237632,42.4093684 43.3987632,42.3825263 43.5716579,42.3498947 C43.6382368,42.3372632 43.7053421,42.3259474 43.7719211,42.3117368 C44.0029737,42.262 44.2300789,42.2022632 44.4532368,42.1327895 C44.6761316,42.0633158 44.8958684,41.9841053 45.1116579,41.8948947 C45.1742895,41.8688421 45.2358684,41.8401579 45.2977105,41.8127895 C45.4513947,41.7443684 45.6029737,41.6714737 45.7521842,41.5933158 C45.8177105,41.5591053 45.8832368,41.5246316 45.9479737,41.4885789 C46.1071842,41.3996316 46.2624474,41.3046316 46.4145526,41.2051579 C46.4563947,41.1775263 46.4995526,41.1525263 46.5408684,41.1243684 C46.5548158,41.1148947 46.5695526,41.107 46.5835,41.0972632 C46.7550789,40.9788421 46.9190263,40.8522632 47.0790263,40.7217368 C47.1108684,40.6959474 47.1416579,40.6696316 47.1729737,40.6435789 C47.5271842,40.3462105 47.8519211,40.0209474 48.1450789,39.6712105 C48.1721842,39.6388421 48.1992895,39.6067368 48.2258684,39.5741053 C48.3661316,39.4014737 48.5003421,39.2233158 48.6258684,39.0393684 C48.6463947,39.0091053 48.6653421,38.9777895 48.6856053,38.9472632 C48.7913947,38.7872632 48.8906053,38.6225263 48.9850789,38.4546316 C49.0106053,38.4085789 49.0379737,38.3633158 49.0627105,38.3167368 C49.1603421,38.1348947 49.2492895,37.9480526 49.3324474,37.7577895 C49.3600789,37.6943684 49.3861316,37.6304211 49.4121842,37.5662105 C49.4845526,37.3877895 49.5521842,37.207 49.6116579,37.0222632 C49.6292895,36.9677895 49.6450789,36.9127895 49.6616579,36.8577895 C49.7153421,36.6780526 49.7619211,36.4951579 49.8027105,36.3104211 C49.8163947,36.2493684 49.8303421,36.1885789 49.8424474,36.1272632 C49.8842895,35.9138421 49.9177105,35.6977895 49.9416579,35.4785789 C49.9474474,35.4280526 49.9511316,35.3775263 49.9558684,35.327 C49.9769211,35.0912105 49.9919211,34.8538421 49.9919211,34.6127895 C49.9919211,30.2688421 46.4577105,26.7348947 42.1137632,26.7348947" mask="url(#value-3-b)"/>
  </g>
</svg>
