<svg xmlns="http://www.w3.org/2000/svg" viewBox="0 0 418.07 315"><path style="fill: #fff" d="M418.07 97.28c0 25.98-10.12 50.41-28.5 68.78l-87.89 87.89c-18.37 18.38-42.8 28.49-68.79 28.49s-50.42-10.12-68.79-28.49c-37.93-37.92-37.93-99.63 0-137.56L183.49 97c.54-.02 1.09-.07 1.63-.07 8.79 0 17.06 3.42 23.28 9.64 6.21 6.22 9.64 14.48 9.64 23.27 0 .59-.05 1.16-.09 1.74s-19.34 19.34-19.34 19.34c-18.89 18.89-18.89 49.63 0 68.52 9.16 9.15 21.32 14.2 34.27 14.2s25.11-5.04 34.27-14.19l87.88-87.89c9.16-9.16 14.2-21.33 14.2-34.27 0-12.95-5.04-25.11-14.18-34.26-9.15-9.15-21.32-14.19-34.26-14.19s-25.12 5.04-34.28 14.19l-6.23 6.23c-4.39-6.85-9.51-13.29-15.4-19.18-5.86-5.87-12.29-10.98-19.11-15.36l6.21-6.22C270.38 10.12 294.82 0 320.81 0s50.4 10.12 68.78 28.49c18.37 18.37 28.5 42.8 28.49 68.79ZM153.2 264.85c-5.87-5.87-10.98-12.34-15.35-19.21l-6.36 6.36c-9.15 9.15-21.32 14.19-34.26 14.19s-25.11-5.04-34.27-14.2c-18.89-18.89-18.89-49.62 0-68.52l87.89-87.89c9.15-9.16 21.33-14.2 34.27-14.2s25.11 5.04 34.26 14.2c9.15 9.15 14.2 21.32 14.2 34.25s-5.05 25.12-14.2 34.28l-19.29 19.29c-.46 9.25 2.98 18.36 9.59 24.96 6.79 6.8 15.89 10 24.91 9.57l19.31-19.3c18.37-18.37 28.5-42.8 28.5-68.79s-10.12-50.42-28.49-68.79c-18.37-18.37-42.79-28.49-68.78-28.49s-50.42 10.12-68.79 28.49l-87.9 87.9c-37.93 37.93-37.93 99.64 0 137.57 18.38 18.38 42.8 28.49 68.79 28.49s50.41-10.11 68.79-28.49l6.31-6.31c-6.8-4.34-13.23-9.45-19.13-15.35Z"/></svg>