<svg xmlns="http://www.w3.org/2000/svg" width="33" height="37" viewBox="0 0 33 37">
  <g fill="#09548C" fill-rule="evenodd">
    <path d="M16.5,37 C16.5,37 16.36905,37 16.36905,37 C2.619048,33.274307 0.1309524,24.92361 0.1309524,24.66667 C0.1309524,24.53819 0,24.53819 0,24.40972 C0,1.54167 0,1.54167 0,1.54167 C0,1.28472 0.2619048,1.02778 0.5238095,0.89931 C0.7857143,0.77083 1.047619,0.77083 1.309524,1.02778 C4.059524,2.82639 6.416667,3.72569 8.77381,3.72569 C11.52381,3.72569 14.14286,2.44097 15.97619,0.25694 C16.2381,0 16.89286,0 17.15476,0.25694 C18.9881,2.44097 21.60714,3.72569 24.35714,3.72569 C26.71429,3.72569 29.07143,2.82639 31.82143,1.02778 C32.08333,0.77083 32.34524,0.77083 32.60714,0.89931 C32.86905,1.02778 33,1.28472 33,1.54167 C33,24.40972 33,24.40972 33,24.40972 C33,24.53819 33,24.53819 33,24.66667 C32.86905,24.92361 30.5119,33.274307 16.7619,37 C16.7619,37 16.63095,37 16.5,37 Z M1.571429,24.28125 C1.964286,25.18056 4.714286,32.118057 16.5,35.458335 C28.41667,32.118057 31.16667,25.18056 31.42857,24.28125 C31.42857,3.08333 31.42857,3.08333 31.42857,3.08333 C28.94048,4.625 26.71429,5.26736 24.35714,5.26736 C21.47619,5.26736 18.59524,4.11111 16.5,1.92708 C14.53572,4.11111 11.65476,5.26736 8.77381,5.26736 C6.416667,5.26736 4.190476,4.625 1.571429,3.08333 L1.571429,24.28125 Z"/>
    <path d="M19.59091,27 C13.40909,27 13.40909,27 13.40909,27 C13.02273,27 12.63636,26.72727 12.63636,26.18182 C12.63636,22.09091 12.63636,22.09091 12.63636,22.09091 C8.772727,22.09091 8.772727,22.09091 8.772727,22.09091 C8.386364,22.09091 8,21.81818 8,21.27273 C8,14.72727 8,14.72727 8,14.72727 C8,14.31818 8.386364,13.90909 8.772727,13.90909 C12.63636,13.90909 12.63636,13.90909 12.63636,13.90909 C12.63636,9.81818 12.63636,9.81818 12.63636,9.81818 C12.63636,9.40909 13.02273,9 13.40909,9 C19.59091,9 19.59091,9 19.59091,9 C20.10606,9 20.36364,9.40909 20.36364,9.81818 C20.36364,13.90909 20.36364,13.90909 20.36364,13.90909 C24.22727,13.90909 24.22727,13.90909 24.22727,13.90909 C24.74242,13.90909 25,14.31818 25,14.72727 C25,21.27273 25,21.27273 25,21.27273 C25,21.81818 24.74242,22.09091 24.22727,22.09091 C20.36364,22.09091 20.36364,22.09091 20.36364,22.09091 C20.36364,26.18182 20.36364,26.18182 20.36364,26.18182 C20.36364,26.72727 20.10606,27 19.59091,27 Z M14.18182,25.36364 C18.81818,25.36364 18.81818,25.36364 18.81818,25.36364 C18.81818,21.27273 18.81818,21.27273 18.81818,21.27273 C18.81818,20.86364 19.20455,20.45455 19.59091,20.45455 C23.45455,20.45455 23.45455,20.45455 23.45455,20.45455 C23.45455,15.54545 23.45455,15.54545 23.45455,15.54545 C19.59091,15.54545 19.59091,15.54545 19.59091,15.54545 C19.20455,15.54545 18.81818,15.27273 18.81818,14.72727 C18.81818,10.63636 18.81818,10.63636 18.81818,10.63636 C14.18182,10.63636 14.18182,10.63636 14.18182,10.63636 C14.18182,14.72727 14.18182,14.72727 14.18182,14.72727 C14.18182,15.27273 13.92424,15.54545 13.40909,15.54545 C9.545455,15.54545 9.545455,15.54545 9.545455,15.54545 C9.545455,20.45455 9.545455,20.45455 9.545455,20.45455 C13.40909,20.45455 13.40909,20.45455 13.40909,20.45455 C13.92424,20.45455 14.18182,20.86364 14.18182,21.27273 L14.18182,25.36364 Z"/>
  </g>
</svg>
