<svg xmlns="http://www.w3.org/2000/svg" viewBox="0 0 64 64"><defs><style>.cls-1,.cls-2{fill:none;stroke:#464646;stroke-linejoin:round;stroke-width:2px;}.cls-1{stroke-linecap:round;}.cls-2{stroke-linecap:square;}</style></defs><title>Asset 1</title><g id="Layer_2" data-name="Layer 2"><g id="Capa_1" data-name="Capa 1"><g id="icons"><g id="medical_check" data-name="medical check"><path class="cls-1" d="M9,31.11A64.91,64.91,0,0,0,23,41.32S45,30,45,15.6C45,8.68,39.7,3,33.15,3"/><path class="cls-1" d="M12.85,3C6.3,3,1,8.68,1,15.6A18.53,18.53,0,0,0,4.65,26"/><circle class="cls-1" cx="16" cy="4" r="3"/><circle class="cls-1" cx="30" cy="4" r="3"/><path class="cls-1" d="M54,46v1.5A15.55,15.55,0,0,1,38.5,63h0A15.55,15.55,0,0,1,23,47.5V42"/><path class="cls-1" d="M50,49.05a9,9,0,1,1,8,0"/><circle class="cls-1" cx="54" cy="41" r="4"/><polyline class="cls-2" points="1 26 10 26 13 21 18 31 24 14 29 26 34 26"/></g></g></g></g></svg>