<svg xmlns="http://www.w3.org/2000/svg" viewBox="0 0 93.43 79.49"><defs><style>.cls-1{fill:#333;}</style></defs><title>Asset 1</title><g id="Layer_2" data-name="Layer 2"><g id="Layer_1-2" data-name="Layer 1"><path class="cls-1" d="M73.46,47.53a29.29,29.29,0,0,0-.9-3.61,28.38,28.38,0,0,0-1.39-3.46,1.43,1.43,0,0,0-1.66-.75l-4.3,1.21a20.51,20.51,0,0,0-1.95-2.67l2.48-3.72a1.41,1.41,0,0,0-.2-1.81,27.51,27.51,0,0,0-2.85-2.39,28.62,28.62,0,0,0-3.16-2,1.43,1.43,0,0,0-1.78.37L55,32.22a20.69,20.69,0,0,0-3.15-1l-.18-4.46a1.4,1.4,0,0,0-1.22-1.34,26.67,26.67,0,0,0-7.43,0,1.41,1.41,0,0,0-1.23,1.34l-.18,4.46a20.94,20.94,0,0,0-3.14,1l-2.77-3.5a1.43,1.43,0,0,0-1.78-.37,27.71,27.71,0,0,0-3.16,2,26.5,26.5,0,0,0-2.85,2.39,1.41,1.41,0,0,0-.2,1.81l2.47,3.72a22.55,22.55,0,0,0-1.95,2.67l-4.29-1.21a1.44,1.44,0,0,0-1.66.75,28.38,28.38,0,0,0-1.39,3.46A27.65,27.65,0,0,0,20,47.53a1.43,1.43,0,0,0,.91,1.58l4.18,1.55q-.06.81-.06,1.65c0,.56,0,1.11.06,1.66l-4.18,1.55A1.42,1.42,0,0,0,20,57.1a28.06,28.06,0,0,0,.91,3.61,27.61,27.61,0,0,0,1.39,3.45,1.41,1.41,0,0,0,1.66.75l4.29-1.2a23.4,23.4,0,0,0,1.95,2.67L27.69,70.1a1.41,1.41,0,0,0,.19,1.81,29,29,0,0,0,2.86,2.39,26.29,26.29,0,0,0,3.16,2,1.41,1.41,0,0,0,1.78-.37l2.76-3.49a24.12,24.12,0,0,0,3.15,1l.18,4.45A1.42,1.42,0,0,0,43,79.23a26.67,26.67,0,0,0,7.43,0,1.41,1.41,0,0,0,1.22-1.35l.18-4.45a23.18,23.18,0,0,0,3.15-1l2.77,3.5a1.41,1.41,0,0,0,1.78.36,26.18,26.18,0,0,0,3.15-2,26.81,26.81,0,0,0,2.86-2.39,1.43,1.43,0,0,0,.2-1.81l-2.48-3.72a21.21,21.21,0,0,0,1.95-2.67l4.3,1.2a1.4,1.4,0,0,0,1.66-.75,27.61,27.61,0,0,0,1.39-3.45,28,28,0,0,0,.9-3.61,1.41,1.41,0,0,0-.9-1.58L68.37,54c0-.55.07-1.1.07-1.66s0-1.11-.07-1.65l4.19-1.55A1.41,1.41,0,0,0,73.46,47.53Zm-7.1.85a1.43,1.43,0,0,0-.92,1.51,18.38,18.38,0,0,1,0,4.84,1.42,1.42,0,0,0,.92,1.51l4.07,1.51c-.15.7-.35,1.39-.57,2.08s-.48,1.37-.76,2l-4.18-1.18a1.42,1.42,0,0,0-1.62.69,19.59,19.59,0,0,1-2.85,3.91A1.4,1.4,0,0,0,60.3,67l2.41,3.62c-.54.47-1.1.92-1.69,1.34s-1.19.83-1.8,1.19l-2.7-3.4a1.4,1.4,0,0,0-1.72-.4,18.77,18.77,0,0,1-4.6,1.49,1.4,1.4,0,0,0-1.15,1.33l-.18,4.35q-1.07.09-2.16.09c-.72,0-1.44,0-2.15-.09l-.18-4.35a1.42,1.42,0,0,0-1.16-1.33,18.91,18.91,0,0,1-4.6-1.49,1.41,1.41,0,0,0-1.72.4l-2.69,3.4c-.61-.36-1.21-.76-1.8-1.19s-1.15-.87-1.69-1.34L33.13,67A1.42,1.42,0,0,0,33,65.28a19.2,19.2,0,0,1-2.85-3.91,1.42,1.42,0,0,0-1.63-.69l-4.18,1.18c-.27-.66-.53-1.34-.75-2s-.42-1.38-.58-2.08l4.08-1.51A1.4,1.4,0,0,0,28,54.73a18.38,18.38,0,0,1,0-4.84,1.41,1.41,0,0,0-.91-1.51L23,46.87c.16-.69.35-1.39.58-2.08s.48-1.36.75-2l4.18,1.17a1.42,1.42,0,0,0,1.63-.68A18.93,18.93,0,0,1,33,39.35a1.42,1.42,0,0,0,.15-1.76L30.72,34c.54-.47,1.1-.92,1.69-1.35s1.19-.82,1.8-1.19l2.69,3.41a1.42,1.42,0,0,0,1.72.4,18.91,18.91,0,0,1,4.6-1.49,1.43,1.43,0,0,0,1.16-1.34l.18-4.34C45.27,28,46,28,46.71,28s1.45,0,2.16.09l.18,4.34a1.41,1.41,0,0,0,1.15,1.34,18.77,18.77,0,0,1,4.6,1.49,1.43,1.43,0,0,0,1.73-.4l2.69-3.41c.61.37,1.21.77,1.8,1.19s1.15.88,1.69,1.35L60.3,37.59a1.4,1.4,0,0,0,.15,1.76,19.3,19.3,0,0,1,2.85,3.91,1.4,1.4,0,0,0,1.62.68l4.18-1.17c.28.66.53,1.33.76,2s.42,1.39.57,2.08Zm-19.65-4a7.89,7.89,0,1,0,7.89,7.88A7.88,7.88,0,0,0,46.71,44.43Zm0,12.93a5,5,0,1,1,5-5A5.06,5.06,0,0,1,46.71,57.36ZM84,5.93a1.42,1.42,0,0,0-1,2.42,1.47,1.47,0,0,0,1,.42,1.42,1.42,0,0,0,1.41-1.42,1.41,1.41,0,0,0-.41-1A1.4,1.4,0,0,0,84,5.93Zm-13.51,0A1.42,1.42,0,0,0,69,7.35a1.43,1.43,0,0,0,.41,1,1.41,1.41,0,0,0,2,0,1.43,1.43,0,0,0,.41-1,1.42,1.42,0,0,0-1.42-1.42Zm6.76,0a1.42,1.42,0,0,0-1,2.42,1.41,1.41,0,0,0,2,0,1.43,1.43,0,0,0,.41-1A1.42,1.42,0,0,0,77.2,5.93ZM84.69,0H8.74A8.74,8.74,0,0,0,0,8.74V62.65a5.48,5.48,0,0,0,5.49,5.48H15.4a1.42,1.42,0,1,0,0-2.83H5.49a2.66,2.66,0,0,1-2.66-2.65v-48H90.59v48a2.65,2.65,0,0,1-2.65,2.65H78a1.42,1.42,0,1,0,0,2.83h9.91a5.48,5.48,0,0,0,5.49-5.48V8.74A8.74,8.74,0,0,0,84.69,0Zm5.9,11.84H2.83V8.74A5.93,5.93,0,0,1,8.74,2.83h76a5.91,5.91,0,0,1,5.9,5.91Z"/></g></g></svg>