<svg xmlns="http://www.w3.org/2000/svg" viewBox="0 0 36 44"><defs><style>.cls-1{fill:none;stroke:#505050;stroke-miterlimit:10;stroke-width:2px;}</style></defs><title>Asset 1</title><g id="Layer_2" data-name="Layer 2"><g id="icons"><path class="cls-1" d="M35,7c0-3.31-7.61-6-17-6S1,3.69,1,7V17c0,3.31,7.61,6,17,6s17-2.69,17-6Z"/><path class="cls-1" d="M1,7c0,3.31,7.61,6,17,6s17-2.69,17-6"/><path class="cls-1" d="M1,18v9c0,3.31,7.61,6,17,6s17-2.69,17-6V18"/><path class="cls-1" d="M1,28v9c0,3.31,7.61,6,17,6s17-2.69,17-6V28"/></g></g></svg>