<svg xmlns="http://www.w3.org/2000/svg" viewBox="0 0 1684.53 1869.78"><defs><style>.cls-1{fill:#333132;}</style></defs><title>Asset 1</title><g id="Layer_2" data-name="Layer 2"><g id="_ÎÓÈ_1" data-name="—ÎÓÈ_1"><path class="cls-1" d="M1643.42,1151.92a32.2,32.2,0,0,0-32.2,32.2V1333c0,44.25-18.36,89.49-54.56,134.46-26.53,33-62.43,65.59-106.7,97-62,44-124.65,74.47-148.71,85.52a32.13,32.13,0,0,0-3.91,2.13,18.35,18.35,0,0,1-19.77,0,32.77,32.77,0,0,0-3.9-2.13c-24.06-11.06-86.71-41.52-148.71-85.52-44.27-31.41-80.17-64-106.7-97-36.21-45-54.56-90.21-54.56-134.46V993.59a18.43,18.43,0,0,1,9.18-15.91c9.57-5.53,66.88-28.6,126.44-49.15C1182.09,900,1244.9,883.86,1286,880.62a20,20,0,0,1,2.9,0c45.89,3.62,77,10.76,138.81,31.83a32.2,32.2,0,0,0,20.78-61c-59.15-20.17-97.37-30.57-154.54-35.07a82.84,82.84,0,0,0-13,0c-46.55,3.67-114.72,20.9-202.64,51.23-52.41,18.08-120.24,44.2-137.66,54.27a83,83,0,0,0-41.35,71.66V1333c0,59.31,23.14,118.14,68.79,174.84,30.25,37.57,70.49,74.29,119.59,109.14,64.93,46.07,130.37,78.22,157.29,90.68a82.79,82.79,0,0,0,85,0c26.92-12.46,92.34-44.6,157.29-90.68,49.1-34.85,89.34-71.57,119.59-109.14,45.65-56.7,68.79-115.53,68.79-174.84V1184.12A32.2,32.2,0,0,0,1643.42,1151.92Z"/><path class="cls-1" d="M1673.13,912.24a32.2,32.2,0,0,0-45.37,3.78L1278,1329.33,1149.26,1198.7a32.2,32.2,0,1,0-45.86,45.2l153.47,155.73a32.23,32.23,0,0,0,22.94,9.6l1.22,0a32.19,32.19,0,0,0,23.35-11.37l372.53-440.21A32.19,32.19,0,0,0,1673.13,912.24Z"/><path class="cls-1" d="M1279.81,1805.38H64.39v-1458h282v97.26c0,22.64,19,40.37,43.36,40.37H940.9c24.31,0,43.36-17.73,43.36-40.37V347.41H1268.4V673.84a32.2,32.2,0,0,0,64.4,0V315.21A32.2,32.2,0,0,0,1300.6,283H984.26V199.5c0-22.63-19-40.36-43.36-40.36l-85-3.87C851,115.43,831.63,78.68,800,50.18,764.18,17.82,716.72,0,666.4,0S568.62,17.82,532.75,50.18c-31.58,28.5-51,65.25-55.84,105.09l-87.2,3.87c-24.31,0-43.36,17.73-43.36,40.36V283H32.2A32.19,32.19,0,0,0,0,315.21V1837.58a32.2,32.2,0,0,0,32.2,32.2H1279.81a32.2,32.2,0,0,0,0-64.4ZM410.74,223.53l97.74-3.87a32.2,32.2,0,0,0,32.06-35.2c-.3-3.15-.45-6.26-.45-9.25,0-61.11,56.66-110.82,126.31-110.82S792.7,114.1,792.7,175.21c0,3-.15,6.11-.44,9.24a32.18,32.18,0,0,0,32,35.21l95.56,3.87V420.64H410.74Z"/><path class="cls-1" d="M999.8,748.8a32.2,32.2,0,0,0-32.19-32.2H324.32a32.2,32.2,0,1,0,0,64.39H967.61A32.19,32.19,0,0,0,999.8,748.8Z"/><path class="cls-1" d="M729,976.09H324.32a32.2,32.2,0,1,0,0,64.4H729a32.2,32.2,0,0,0,0-64.4Z"/><path class="cls-1" d="M729,1235.59H324.32a32.2,32.2,0,1,0,0,64.39H729a32.2,32.2,0,0,0,0-64.39Z"/><path class="cls-1" d="M799.7,1477.79H324.32a32.2,32.2,0,1,0,0,64.39H799.7a32.2,32.2,0,1,0,0-64.39Z"/><path class="cls-1" d="M666.4,243.1a62.71,62.71,0,1,0-62.71-62.71A62.78,62.78,0,0,0,666.4,243.1Zm0-64.39a1.69,1.69,0,1,1-1.68,1.68A1.68,1.68,0,0,1,666.4,178.71Z"/></g></g></svg>