<svg xmlns="http://www.w3.org/2000/svg" width="49" height="36" viewBox="0 0 49 36">
  <g fill="none" fill-rule="evenodd" stroke="#111" stroke-width="2" transform="translate(0 1)">
    <path d="M5.6916 19.376L8.7586 17.478C9.1406 17.241 9.5886 17.101 10.0706 17.101 11.4516 17.101 12.5706 18.221 12.5706 19.601 12.5706 20.5 12.0946 21.285 11.3826 21.725L8.3156 23.624C7.9336 23.86 7.4856 24 7.0036 24 5.6226 24 4.5036 22.881 4.5036 21.5 4.5036 20.602 4.9806 19.817 5.6916 19.376zM9.6916 22.7725L12.7586 20.8735C13.1406 20.6375 13.5886 20.4975 14.0706 20.4975 15.4516 20.4975 16.5706 21.6165 16.5706 22.9975 16.5706 23.8965 16.0946 24.6805 15.3826 25.1215L12.3156 27.0205C11.9336 27.2565 11.4856 27.3965 11.0036 27.3965 9.6226 27.3965 8.5036 26.2765 8.5036 24.8965 8.5036 23.9975 8.9806 23.2125 9.6916 22.7725z"/>
    <path d="M13.6916 26.1685L16.7586 24.2695C17.1406 24.0335 17.5886 23.8935 18.0706 23.8935 19.4516 23.8935 20.5706 25.0125 20.5706 26.3935 20.5706 27.2925 20.0946 28.0765 19.3826 28.5175L16.3156 30.4165C15.9336 30.6525 15.4856 30.7925 15.0036 30.7925 13.6226 30.7925 12.5036 29.6725 12.5036 28.2925 12.5036 27.3935 12.9806 26.6085 13.6916 26.1685zM18.6916 28.9478L21.7586 27.0488C22.1406 26.8128 22.5886 26.6728 23.0706 26.6728 24.4516 26.6728 25.5706 27.7918 25.5706 29.1728 25.5706 30.0718 25.0946 30.8558 24.3826 31.2968L21.3156 33.1958C20.9336 33.4318 20.4856 33.5718 20.0036 33.5718 18.6226 33.5718 17.5036 32.4528 17.5036 31.0718 17.5036 30.1728 17.9806 29.3878 18.6916 28.9478zM32.1335 18.3198L39.3235 22.7698 40.7035 23.6198C41.0835 23.8598 41.5335 23.9998 42.0135 23.9998 43.3935 23.9998 44.5135 22.8798 44.5135 21.4998 44.5135 20.5998 44.0335 19.8198 43.3235 19.3798L23.9135 7.3598 21.5135 9.4098 21.5135 12.9998C21.5135 14.6598 20.1735 15.9998 18.5135 15.9998L15.5135 15.9998 15.5135 7.9998C15.5135 7.0798 15.9435 6.2598 16.5835 5.7098L22.6035.6998C23.1235.2698 23.7835-.0002 24.5135-.0002 24.8435-.0002 25.1635.0598 25.4635.1598L34.7435 3.3598C37.7935 4.4098 41.1335 4.1898 44.0235 2.7498L47.5135.9998"/>
    <path d="M1.5134 1L5.0034 2.75C7.8934 4.19 11.2334 4.41 14.2834 3.36L23.5634.16C23.8634.06 24.1834-7.10542736e-15 24.5134-7.10542736e-15M32.1335 18.3198L39.3235 22.7698C40.0335 23.2098 40.5135 23.9998 40.5135 24.8998 40.5135 26.2798 39.3935 27.3998 38.0135 27.3998 37.5335 27.3998 37.0835 27.2598 36.7035 27.0198L35.3235 26.1698 29.5035 22.5598M26.8733 26.8101L30.3233 28.9501 32.7033 30.4201C33.0833 30.6501 33.5333 30.7901 34.0133 30.7901 35.3933 30.7901 36.5133 29.6701 36.5133 28.2901 36.5133 27.3901 36.0333 26.6101 35.3233 26.1701L29.5033 22.5701M5.5432 19.4819C4.2242 18.5189 2.6332 17.9999 1.0002 17.9999L.5132 17.9999M43.4836 19.4819C44.8026 18.5189 46.3936 17.9999 48.0266 17.9999L48.5136 17.9999"/>
    <line x1="27.703" x2="24.498" y1="33.2" y2="31.216"/>
    <path d="M26.8733,26.8101 L30.3233,28.9501 C31.0333,29.3901 31.5133,30.1701 31.5133,31.0701 C31.5133,32.4501 30.3933,33.5701 29.0133,33.5701 C28.5333,33.5701 28.0833,33.4301 27.7033,33.2001"/>
    <line x1="18.513" x2="15.513" y1="12" y2="12"/>
  </g>
</svg>
