<svg xmlns="http://www.w3.org/2000/svg" xmlns:xlink="http://www.w3.org/1999/xlink" width="51" height="44" viewBox="0 0 51 44">
  <defs>
    <polygon id="home-icon3-a" points="0 .059 25.994 .059 25.994 15.601 0 15.601"/>
    <polygon id="home-icon3-c" points=".017 .095 26.011 .095 26.011 15.638 .017 15.638"/>
    <polygon id="home-icon3-e" points=".021 .066 26.016 .066 26.016 15.608 .021 15.608"/>
  </defs>
  <g fill="none" fill-rule="evenodd">
    <path fill="#20201D" d="M24.9502505 43.90477C24.771858 43.90477 24.5924217 43.8594272 24.4324008 43.7686385L7.78699374 34.3572864C7.46183716 34.1737465 7.26100209 33.8313521 7.26100209 33.4606573L7.26100209 22.9140845C7.26100209 22.3437371 7.72791232 21.8812207 8.30484342 21.8812207 8.88177453 21.8812207 9.34868476 22.3437371 9.34868476 22.9140845L9.34868476 32.8609765 24.9502505 41.6821502 40.5518163 32.8609765 40.5518163 22.9140845C40.5518163 22.3437371 41.0187265 21.8812207 41.5956576 21.8812207 42.1725887 21.8812207 42.639499 22.3437371 42.639499 22.9140845L42.639499 33.4606573C42.639499 33.8313521 42.4386639 34.1737465 42.1135073 34.3572864L25.4681002 43.7686385C25.3080793 43.8594272 25.128643 43.90477 24.9502505 43.90477M41.5946242 15.6704657C41.4192589 15.6704657 41.2408664 15.626569 41.0778184 15.5343343L24.950261 6.41559249 8.82270355 15.5343343C8.32113779 15.8167192 7.68408142 15.6447474 7.39859081 15.1500056 7.11216075 14.6547474 7.28648225 14.0238742 7.78700418 13.7408695L24.4324113 4.32910423C24.752453 4.14752676 25.1479645 4.14752676 25.4681106 4.32910423L42.1135177 13.7408695C42.6140397 14.0238742 42.7883612 14.6547474 42.5018267 15.1500056 42.309238 15.4838272 41.9575678 15.6704657 41.5946242 15.6704657"/>
    <path fill="#20201D" d="M24.9512735,25.025754 C24.5883299,25.025754 24.2366597,24.8391155 24.044071,24.5052939 C23.7575365,24.0100357 23.931858,23.3791624 24.43238,23.0961577 L41.0777871,13.6849089 C41.5772651,13.3999418 42.2154697,13.5739793 42.5018998,14.0692376 C42.7883299,14.5644958 42.6140084,15.195369 42.1134864,15.4782704 L25.4680793,24.8896225 C25.3050313,24.9818573 25.1266388,25.025754 24.9512735,25.025754"/>
    <path fill="#20201D" d="M24.9502505,43.8487887 C24.3733194,43.8487887 23.9064092,43.3862723 23.9064092,42.8159249 L23.9064092,23.9929108 C23.9064092,23.4224601 24.3733194,22.9600469 24.9502505,22.9600469 C25.5271816,22.9600469 25.9940919,23.4224601 25.9940919,23.9929108 L25.9940919,42.8159249 C25.9940919,43.3862723 25.5271816,43.8487887 24.9502505,43.8487887"/>
    <g transform="translate(0 13.539)">
      <mask id="home-icon3-b" fill="#fff">
        <use xlink:href="#home-icon3-a"/>
      </mask>
      <path fill="#20201D" d="M3.15394572,5.18660845 L17.6718998,13.3793878 L22.8421503,10.4558667 L8.3211691,2.28012958 L3.15394572,5.18660845 Z M17.6729436,15.6014911 C17.4945511,15.6014911 17.3161587,15.5561484 17.1561378,15.4657728 L0.527014614,6.08230798 C0.200814196,5.89825164 -2.08768267e-05,5.55575399 -2.08768267e-05,5.18454272 C-2.08768267e-05,4.81291831 0.201858038,4.47042066 0.528058455,4.28739718 L7.8054071,0.194261033 C8.12544885,0.0137164319 8.51688935,0.0137164319 8.83693111,0.194261033 L25.4660543,9.5566554 C25.96762,9.83852394 26.142881,10.4693972 25.8574948,10.9651718 C25.7535282,11.1457164 25.6026931,11.2833972 25.4293111,11.3722235 L18.1907933,15.4653596 C18.0307724,15.5561484 17.8513361,15.6014911 17.6729436,15.6014911 L17.6729436,15.6014911 Z" mask="url(#home-icon3-b)"/>
    </g>
    <g transform="translate(23.904 .008)">
      <mask id="home-icon3-d" fill="#fff">
        <use xlink:href="#home-icon3-c"/>
      </mask>
      <path fill="#20201D" d="M3.17066806,5.22231455 L13.9893528,11.3271596 L17.689666,13.4156103 L22.8599165,10.4925023 L8.33893528,2.31635211 L3.17066806,5.22231455 Z M17.689666,15.6377136 C17.5112735,15.6377136 17.332881,15.5922676 17.1728601,15.5019953 L0.543736952,6.11801408 C0.217536534,5.93395775 0.0167014614,5.59146009 0.0167014614,5.21983568 C0.0167014614,4.84862441 0.218580376,4.50612676 0.544780793,4.32258685 L7.82306889,0.229967136 C8.14321503,0.0504553991 8.53465553,0.0499389671 8.85469729,0.230483568 L25.4827766,9.59277465 C25.808977,9.77641784 26.0108559,10.1188122 26.0108559,10.489507 C26.0108559,10.8607183 25.8100209,11.2031127 25.4848643,11.3872723 L18.2075157,15.5014789 C18.0474948,15.5922676 17.8680585,15.6377136 17.689666,15.6377136 L17.689666,15.6377136 Z" mask="url(#home-icon3-d)"/>
    </g>
    <g transform="translate(23.904 13.539)">
      <mask id="home-icon3-f" fill="#fff">
        <use xlink:href="#home-icon3-e"/>
      </mask>
      <path fill="#20201D" d="M3.17168058,10.4628901 L8.34193111,13.3854817 L22.8619729,5.19270235 L17.6937056,2.28673991 L3.17168058,10.4628901 Z M8.34193111,15.607585 C8.16353862,15.607585 7.98420668,15.562139 7.82408142,15.4713502 L0.546837161,11.3575568 C0.2215762,11.1735005 0.0207411273,10.8310028 0.0207411273,10.4598948 C0.0207411273,10.0892 0.222620042,9.74670235 0.548820459,9.56316244 L17.1779436,0.200871362 C17.4979854,0.0202234742 17.8894259,0.0207399061 18.2094676,0.20035493 L25.4878601,4.29297465 C25.8140605,4.47651455 26.0159395,4.81890892 26.0159395,5.19012019 C26.0159395,5.56184789 25.8151044,5.90424225 25.488904,6.08829859 L8.85873695,15.4718667 C8.69871608,15.562139 8.52032359,15.607585 8.34193111,15.607585 L8.34193111,15.607585 Z" mask="url(#home-icon3-f)"/>
    </g>
    <path fill="#20201D" d="M3.15292276,10.5187577 L8.32317328,13.4413493 L22.843215,5.24856995 L17.6749478,2.34209108 L3.15292276,10.5187577 Z M8.32317328,15.6634526 C8.14478079,15.6634526 7.96544885,15.6180066 7.80532359,15.5272178 L0.528079332,11.4134244 C0.202818372,11.2293681 0.00198329854,10.8868704 0.00198329854,10.5157624 C0.00198329854,10.1450676 0.203862213,9.80256995 0.53006263,9.61903005 L17.1591858,0.256222535 C17.4792276,0.0756779343 17.8706681,0.0760910798 18.1907098,0.255706103 L25.4691023,4.34884225 C25.7953027,4.53238216 25.9971816,4.87477653 25.9971816,5.24650423 C25.9971816,5.61771549 25.7963466,5.96010986 25.4701461,6.1441662 L8.83997912,15.5277343 C8.67995825,15.6180066 8.50156576,15.6634526 8.32317328,15.6634526 L8.32317328,15.6634526 Z"/>
  </g>
</svg>
