<svg xmlns="http://www.w3.org/2000/svg" xmlns:xlink="http://www.w3.org/1999/xlink" width="36" height="36" viewBox="0 0 36 36">
  <defs>
    <polygon id="index-icon3-a" points="0 .087 18.65 .087 18.65 18.736 0 18.736"/>
  </defs>
  <g fill="none" fill-rule="evenodd">
    <path fill="#09548C" d="M16.9144981,7.72003717 C11.1751487,7.72003717 6.50557621,12.3894796 6.50557621,18.1289591 C6.50557621,23.8684387 11.1751487,28.537881 16.9144981,28.537881 C22.6541078,28.537881 27.3235502,23.8684387 27.3235502,18.1289591 C27.3235502,15.9158922 26.6258922,13.8648141 25.4433086,12.176487 L24.5085874,13.1110781 C25.4636059,14.5510223 26.0224349,16.2753903 26.0224349,18.1289591 C26.0224349,23.1510037 21.9366729,27.2367658 16.9144981,27.2367658 C11.8924535,27.2367658 7.80669145,23.1510037 7.80669145,18.1289591 C7.80669145,13.1069145 11.8924535,9.02115242 16.9144981,9.02115242 C18.768197,9.02115242 20.4925651,9.57998141 21.9325093,10.535 L22.8671004,9.60027881 C21.1789033,8.41782528 19.1278253,7.72003717 16.9144981,7.72003717"/>
    <path fill="#09548C" d="M16.9144981,14.2256134 C14.7621933,14.2256134 13.0111524,15.9766543 13.0111524,18.1289591 C13.0111524,20.2812639 14.7621933,22.0323048 16.9144981,22.0323048 C19.0669331,22.0323048 20.817974,20.2812639 20.817974,18.1289591 C20.817974,17.7278253 20.756171,17.3410037 20.642974,16.9768216 L19.515948,18.1038476 C19.515948,18.1121747 19.5168587,18.1205019 19.5168587,18.1289591 C19.5168587,19.563829 18.349368,20.7311896 16.9144981,20.7311896 C15.4797584,20.7311896 14.3122677,19.563829 14.3122677,18.1289591 C14.3122677,16.6942193 15.4797584,15.5267286 16.9144981,15.5267286 C16.9229554,15.5267286 16.9312825,15.5276394 16.9396097,15.5277695 L18.0667658,14.4007435 C17.7024535,14.2875465 17.3157621,14.2256134 16.9144981,14.2256134"/>
    <path fill="#09548C" d="M30.7209312,10.394948 C30.6684963,10.4473829 30.6126784,10.4950037 30.5552993,10.5400223 C31.8108755,12.7882193 32.5280502,15.3761375 32.5280502,18.1289071 C32.5280502,26.7381264 25.5238866,33.74229 16.9145372,33.74229 C8.30531784,33.74229 1.30115428,26.7381264 1.30115428,18.1289071 C1.30115428,9.51968773 8.30531784,2.51552416 16.9145372,2.51552416 C19.6671766,2.51552416 22.2549647,3.23256877 24.5029015,4.48814498 C24.5480502,4.43037546 24.5964517,4.37494796 24.6487565,4.32277323 L25.443868,3.52779182 C22.9383104,2.05831227 20.0232918,1.21440892 16.9145372,1.21440892 C7.5878829,1.21440892 3.90334573e-05,8.8023829 3.90334573e-05,18.1289071 C3.90334573e-05,27.4556914 7.5878829,35.0434052 16.9145372,35.0434052 C26.2413216,35.0434052 33.8291654,27.4556914 33.8291654,18.1289071 C33.8291654,15.0204126 32.9852621,12.1053941 31.5160428,9.59983643 L30.7209312,10.394948 Z"/>
    <g transform="translate(16.264 .043)">
      <mask id="index-icon3-b" fill="#fff">
        <use xlink:href="#index-icon3-a"/>
      </mask>
      <path fill="#09548C" d="M12.9413866,8.37097212 L11.5031338,8.15303532 L15.1904944,4.46580483 L16.6287472,4.68374164 L12.9413866,8.37097212 Z M10.3653086,5.79489405 L14.052539,2.10766357 L14.2704758,3.54578625 L13.0551041,4.76115799 L10.5832454,7.23301673 L10.3653086,5.79489405 Z M18.6171115,4.03019145 C18.5404758,3.79716171 18.3391933,3.62684572 18.0965353,3.59015428 L16.3332639,3.3229052 L17.6769257,1.97937361 C17.9311636,1.7252658 17.9311636,1.31333271 17.6769257,1.05922491 C17.5500669,0.932236059 17.3835242,0.868871747 17.2169814,0.868871747 C17.0505688,0.868871747 16.884026,0.932236059 16.7570372,1.05922491 L15.4132454,2.40301673 L15.1461264,0.639745353 C15.1094349,0.397217472 14.939119,0.195804833 14.7060892,0.119169145 C14.6394721,0.0973104089 14.5707732,0.0866412639 14.502855,0.0866412639 C14.3327993,0.0866412639 14.166777,0.153258364 14.0430409,0.277254647 L9.21291078,5.10738476 C9.06666543,5.2535 8.9986171,5.46037732 9.02971375,5.66478253 L9.44034572,8.37591636 L0.190587361,17.6255446 C-0.0635204461,17.8795223 -0.0635204461,18.2914554 0.190587361,18.5454331 C0.31770632,18.672552 0.484118959,18.7360465 0.650531599,18.7360465 C0.816944238,18.7360465 0.9836171,18.672552 1.11060595,18.5454331 L10.3603643,9.29580483 L13.0714981,9.70669703 C13.104026,9.71164126 13.1365539,9.71398327 13.1689517,9.71398327 C13.3401784,9.71398327 13.5060706,9.64632528 13.6288959,9.5235 L18.459026,4.69336989 C18.6325948,4.51980112 18.6937472,4.26348141 18.6171115,4.03019145 L18.6171115,4.03019145 Z" mask="url(#index-icon3-b)"/>
    </g>
  </g>
</svg>
