<svg xmlns="http://www.w3.org/2000/svg" width="35" height="42" viewBox="0 0 35 42">
  <g fill="#09548C" fill-rule="evenodd">
    <path d="M1.62103261,40.226413 L33.235163,40.226413 L33.235163,22.7983152 L1.62103261,22.7983152 L1.62103261,40.226413 Z M5.36070652,14.8274457 L12.9016848,14.8274457 C14.195163,15.7013043 15.7530435,16.2122283 17.4280978,16.2122283 C19.1031522,16.2122283 20.6610326,15.7013043 21.9545109,14.8274457 L29.4954891,14.8274457 L32.7242391,21.1772826 L2.13195652,21.1772826 L5.36070652,14.8274457 Z M10.9432065,8.10630435 C10.9432065,4.53021739 13.8523913,1.62141304 17.4280978,1.62141304 C21.0038043,1.62141304 23.9129891,4.53021739 23.9129891,8.10630435 C23.9129891,11.6816304 21.0038043,14.5908152 17.4280978,14.5908152 C13.8523913,14.5908152 10.9432065,11.6816304 10.9432065,8.10630435 L10.9432065,8.10630435 Z M34.8561957,21.1772826 L30.4899457,13.206413 L23.7208696,13.206413 C24.852663,11.8121196 25.5344022,10.0377717 25.5344022,8.10630435 C25.5344022,3.63657609 21.8978261,0 17.4280978,0 C12.9583696,0 9.32179348,3.63657609 9.32179348,8.10630435 C9.32179348,10.0377717 10.0035326,11.8121196 11.1353261,13.206413 L4.36625,13.206413 L0,21.1772826 L0,41.8478261 L34.8561957,41.8478261 L34.8561957,21.1772826 Z"/>
    <polygon points="13.02 18.813 21.836 18.813 21.836 17.191 13.02 17.191"/>
    <polygon points="16.814 13.136 18.042 13.136 18.042 12.138 19.598 12.138 19.598 11.524 19.598 7.486 18.983 7.492 16.488 7.492 16.488 5.303 19.598 5.303 19.598 4.075 18.042 4.075 18.042 3.076 16.814 3.076 16.814 4.075 15.259 4.075 15.259 8.106 15.259 8.721 18.369 8.721 18.369 10.909 15.259 10.909 15.259 12.138 16.814 12.138"/>
  </g>
</svg>
