<svg xmlns="http://www.w3.org/2000/svg" width="35" height="50" viewBox="0 0 35 50">
  <g fill="#0B5790" fill-rule="evenodd">
    <path d="M12.7452907,37.2657558 C12.0092442,37.2657558 11.4226163,37.0320349 10.7115698,36.7081977 C8.91215116,35.8872674 8.24122093,33.7570349 8.50924419,32.0773837 C8.68075581,31.0035465 9.14819767,30.1558721 9.56040698,29.4081977 C9.95866279,28.6861047 10.3028488,28.0628488 10.3435465,27.3331977 C10.4261047,25.8401744 10.0080814,24.5076163 9.22610465,23.7686628 C7.0825,21.7459884 6.97494186,19.7965698 7.07959302,18.5058721 C7.36098837,15.0500581 8.7325,12.1599419 10.9418023,10.3675 C13.7359884,8.10180233 17.5214535,7.41633721 20.8237791,8.58087209 C22.3144767,9.10587209 23.6731977,9.98494186 24.7522674,11.1221512 C27.8935465,14.4337791 28.5720349,20.7709884 26.2342442,24.9611047 C25.8981977,25.564593 25.1365698,25.7808721 24.5319186,25.4442442 C23.9284302,25.1076163 23.7121512,24.345407 24.0487791,23.7419186 C25.8679651,20.4797093 25.3487791,15.3878488 22.9365698,12.8448256 C22.129593,11.9942442 21.1109884,11.3355233 19.9918023,10.9413372 C17.5418023,10.0773837 14.6092442,10.6163372 12.5185465,12.3111047 C10.8452907,13.6686628 9.79936047,15.9407558 9.57377907,18.7093605 C9.49761628,19.648314 9.61040698,20.6907558 10.9435465,21.9488953 C12.2749419,23.2058721 12.9668023,25.2186628 12.8423837,27.4715698 C12.7697093,28.7709884 12.2290116,29.7518023 11.7522674,30.6169186 C11.3935465,31.2675 11.0836628,31.8291279 10.9807558,32.4715698 C10.863314,33.2087791 11.1191279,34.1425 11.7505233,34.4308721 C12.5243605,34.7837791 12.6697093,34.8256395 13.1877326,34.6977326 C13.7452907,34.5605233 14.2418023,34.1523837 14.4842442,33.6320349 C14.776686,33.0058721 15.5220349,32.7343605 16.1470349,33.0262209 C16.7737791,33.3180814 17.0447093,34.0622674 16.7528488,34.6890116 C16.1900581,35.8971512 15.0813372,36.8087791 13.7865698,37.1279651 C13.3987791,37.223314 13.0586628,37.2657558 12.7452907,37.2657558"/>
    <path d="M11.9680233,49.4325 C10.0156977,49.4325 7.71046512,48.6772674 5.94069767,46.4912209 C4.31511628,44.4836628 3.97616279,42.2877326 3.61686047,39.963314 C3.51162791,39.2807558 3.97965116,38.6412209 4.6622093,38.5359884 C5.34651163,38.4313372 5.98488372,38.8981977 6.09011628,39.5813372 C6.45930233,41.9702907 6.74360465,43.5051744 7.88604651,44.9162209 C9.51046512,46.9237791 11.7505814,47.1720349 13.175,46.7737791 C16.2790698,45.9080814 17.947093,43.7923837 19.877907,41.3429651 C20.6866279,40.3185465 21.522093,39.2586628 22.5081395,38.2365698 C29.0267442,31.485407 32.4965116,24.0749419 32.027907,17.9057558 C31.6744186,13.2540116 29.6540698,9.10284884 26.4848837,6.51622093 C21.9354651,2.80168605 16.8523256,2.7580814 13.3901163,3.37436047 C1.67848837,5.46040698 2.25639535,18.6569186 2.7127907,22.6522674 C2.79127907,23.3388953 2.29825581,23.9592442 1.61162791,24.0377326 C0.924418605,24.1144767 0.304651163,23.6226163 0.226162791,22.9359884 C-1.1377907,10.9912209 3.73837209,2.55110465 12.9511628,0.910406977 C18.5761628,-0.0913372093 23.9430233,1.21156977 28.0680233,4.57726744 C31.7645349,7.59587209 34.1174419,12.3842442 34.5232558,17.7162209 C35.0465116,24.5970349 31.3232558,32.710407 24.3093023,39.9749419 C23.4093023,40.9063372 22.6133721,41.9162209 21.8436047,42.8923837 C19.825,45.451686 17.7383721,48.0987791 13.8476744,49.1848256 C13.2895349,49.3400581 12.65,49.4325 11.9680233,49.4325"/>
    <path d="M18.4030814,20.3354651 C17.7123837,20.3354651 17.1519186,19.775 17.1519186,19.0843023 C17.1519186,17.2825581 16.3641279,15.9273256 14.9327326,15.2697674 C13.3868023,14.5581395 11.4059884,14.8331395 10.1164535,15.9389535 C9.59145349,16.3883721 8.8019186,16.327907 8.3519186,15.802907 C7.9025,15.2784884 7.96296512,14.4883721 8.48796512,14.0383721 C10.5257558,12.2918605 13.5362209,11.8726744 15.9786628,12.9953488 C18.3147093,14.0703488 19.6542442,16.2895349 19.6542442,19.0843023 C19.6542442,19.775 19.0937791,20.3354651 18.4030814,20.3354651"/>
  </g>
</svg>
